<svg width="785" height="824" viewBox="0 0 785 824" fill="none" xmlns="http://www.w3.org/2000/svg">
<path d="M606.865 263.084C613.521 257.572 620.192 254.528 626.5 255.93C629.656 256.631 632.041 258.248 633.754 260.624C635.457 262.984 636.473 266.058 636.98 269.649C637.992 276.821 636.995 286.256 635.092 296.741C633.187 307.239 630.357 318.873 627.663 330.452C624.966 342.044 622.404 353.586 621.02 363.948C618.235 384.804 610.609 412.572 601.254 443.965C595.209 464.25 588.441 486.056 581.773 508.52C582.583 507.25 583.435 505.968 584.3 504.721C585.951 502.339 587.672 500.052 589.277 498.179C590.852 496.34 592.41 494.786 593.737 493.988C596.207 492.503 599.568 491.636 602.2 491.137C603.536 490.883 604.726 490.717 605.583 490.614C605.761 490.593 605.927 490.576 606.076 490.559C606.248 490.033 606.502 489.292 606.838 488.408H606.839C607.521 486.618 608.549 484.219 609.925 481.809C611.276 479.445 612.599 477.561 614.262 476.299C615.984 474.992 617.959 474.432 620.434 474.474C623.099 474.52 625.143 475.684 626.793 477.333C628.405 478.943 629.695 481.071 630.892 483.135C631.674 484.483 631.866 486.08 631.814 487.689C631.762 489.305 631.457 491.093 631.111 492.91C630.404 496.625 629.517 500.553 629.737 504.382C629.974 508.501 630.038 512.873 630.507 516.718C630.514 516.772 630.521 516.826 630.528 516.88C630.549 516.756 630.572 516.631 630.594 516.504C631.133 513.413 631.862 509.189 632.625 504.653C634.155 495.563 635.813 485.276 636.359 480.324C636.615 477.996 636.36 474.053 635.797 469.208C635.239 464.404 634.398 458.843 633.539 453.344C632.681 447.856 631.805 442.421 631.185 437.909C630.574 433.458 630.183 429.718 630.361 427.712V427.711C630.683 424.086 630.596 421.123 630.73 418.01C630.862 414.957 631.211 411.959 632.44 408.701C634.81 402.42 636.929 398.612 642.152 394.164C647.259 389.815 654.351 385.523 663.156 386.524C671.966 387.526 679.145 393.52 683.511 401.891C687.964 410.428 685.75 417.167 684.99 425.945C684.583 430.639 682.678 438.089 680.764 444.686C678.84 451.319 676.863 457.235 676.254 458.931C675.642 460.639 672.62 467.855 669.785 474.652C668.36 478.068 666.974 481.395 665.945 483.91C665.43 485.168 665.007 486.217 664.713 486.97C664.609 487.236 664.526 487.462 664.458 487.642C664.523 487.719 664.601 487.81 664.696 487.914C665.117 488.374 665.753 488.996 666.578 489.762C668.221 491.286 670.536 493.3 673.199 495.569C675.917 497.886 680.624 502.565 684.613 506.621C686.615 508.658 688.451 510.552 689.786 511.936C690.453 512.629 690.995 513.195 691.371 513.587C691.558 513.782 691.706 513.937 691.805 514.041C691.83 514.067 691.853 514.092 691.874 514.113L691.879 514.116L691.962 514.205L692.013 514.26L692.056 514.307L692.089 514.36L692.128 514.423L692.135 514.432L694.881 519.011C694.964 518.914 695.047 518.816 695.126 518.712C697.292 515.883 699.859 510.25 701.681 504.264C703.492 498.314 704.215 493.503 704.318 486.457C704.42 479.444 702.339 469.973 701.666 466.607C701.321 464.882 701.073 461.983 701.203 459.181C701.268 457.777 701.428 456.376 701.727 455.147C702.022 453.932 702.469 452.815 703.153 452.042C704.358 450.678 705.562 449.742 706.933 449.087C708.297 448.435 709.793 448.077 711.553 447.825C715.253 447.297 719.953 449.018 724.03 451.941C725.161 452.752 726.04 454.016 726.781 455.506C727.524 457.001 728.158 458.785 728.768 460.695C729.999 464.55 731.14 468.923 732.912 472.866C733.785 474.81 737.449 480.921 742.505 489.14C747.545 497.332 753.928 507.552 760.203 517.677C766.475 527.798 772.639 537.821 777.236 545.606C779.533 549.498 781.444 552.838 782.781 555.354C783.449 556.611 783.979 557.672 784.344 558.499C784.526 558.912 784.672 559.276 784.773 559.583C784.868 559.872 784.945 560.171 784.945 560.43C784.945 562.681 785.098 564.703 784.83 566.391C784.547 568.168 783.795 569.664 782.004 570.964C780.129 572.325 777.715 572.277 775.454 571.622C773.178 570.963 770.92 569.654 769.203 568.28C768.929 568.061 768.537 567.616 768.073 567.045C767.593 566.454 766.992 565.672 766.29 564.73C764.884 562.847 763.058 560.306 760.955 557.338C756.748 551.403 751.413 543.734 746.085 536.159C740.755 528.579 735.429 521.09 731.23 515.498C729.129 512.7 727.318 510.388 725.932 508.778C725.238 507.972 724.663 507.355 724.219 506.946C723.996 506.741 723.822 506.602 723.694 506.518C723.656 506.494 723.626 506.479 723.606 506.469C723.563 506.485 723.481 506.523 723.357 506.62C723.161 506.774 722.922 507.021 722.643 507.373C722.087 508.076 721.444 509.105 720.734 510.38C719.317 512.925 717.695 516.345 716.048 519.838C714.408 523.319 712.745 526.872 711.261 529.647C710.52 531.034 709.812 532.245 709.167 533.164C708.844 533.623 708.527 534.023 708.219 534.339C707.92 534.646 707.589 534.915 707.235 535.059C703.957 536.394 701.356 537.986 697.764 537.309C696.612 537.912 695.309 537.993 694.158 537.905C693.272 537.837 692.382 537.667 691.592 537.503C690.768 537.332 690.086 537.178 689.48 537.096C687.933 536.886 685.944 536.145 684.045 535.156C682.252 534.222 680.422 533.006 679 531.658L678.722 531.388C678.028 530.693 675.989 528.443 673.354 525.562C670.697 522.657 667.39 519.06 664.107 515.612C660.819 512.159 657.577 508.877 655.046 506.592C653.774 505.442 652.724 504.585 651.962 504.084C651.75 503.944 651.582 503.848 651.456 503.783C651.297 503.872 651.111 503.946 650.899 503.981H650.898C650.476 504.051 650.108 503.95 649.821 503.786C649.468 505.715 648.992 508.652 648.332 513.009C647.502 518.482 647.004 522.812 646.577 526.351C646.152 529.868 645.789 532.664 645.226 534.98C644.655 537.328 643.865 539.245 642.553 541.005C641.252 542.75 639.494 544.266 637.102 545.895C634.603 547.597 632.316 548.33 630.233 548.339C628.147 548.347 626.401 547.627 624.989 546.663C623.681 545.77 622.643 544.653 621.848 543.678C620.769 542.774 619.733 541.838 618.796 541.014C617.972 540.288 617.223 539.65 616.551 539.153C615.861 538.643 615.347 538.354 614.989 538.241V538.242C614.872 538.206 614.803 538.197 614.768 538.195C614.706 538.271 614.525 538.552 614.396 539.328C614.022 541.573 612.797 544.332 611.055 547.095C609.298 549.88 606.954 552.769 604.241 555.272C598.889 560.21 591.727 563.968 584.691 561.73C577.816 559.543 574.528 554.455 573.008 549.177C572.396 547.051 572.066 544.873 571.892 542.811C571.602 543.856 571.314 544.902 571.027 545.947C570.097 549.327 569.105 553.088 568.056 557.182C568.041 557.191 568.027 557.199 568.014 557.208L567.914 557.293C567.906 557.297 567.848 557.339 567.675 557.422C567.495 557.508 567.276 557.601 566.991 557.727C566.439 557.971 565.728 558.304 565.009 558.798C563.55 559.801 562.088 561.457 561.727 564.345C561.378 567.134 561.898 569.427 562.618 570.958C562.974 571.716 563.396 572.319 563.815 572.698C563.912 572.786 564.019 572.87 564.133 572.943C554.392 612.994 541.37 672.203 529.212 722.983C521.548 754.995 514.225 783.661 508.29 802.024C505.331 811.178 502.69 817.861 500.49 821.099C499.937 821.913 499.381 822.557 498.818 822.966C498.249 823.378 497.588 823.605 496.906 823.391C496.256 823.186 495.772 822.634 495.402 821.945C495.025 821.244 494.707 820.296 494.438 819.117C486.001 782.172 486.31 756.882 488.426 722.308C488.684 718.105 489.004 714.133 489.379 710.338C489.834 710.295 490.511 710.171 491.255 710.006C492.209 709.794 493.35 709.499 494.451 709.16C495.546 708.823 496.625 708.436 497.441 708.039C497.845 707.842 498.217 707.628 498.498 707.397C498.741 707.196 499.086 706.846 499.086 706.357C499.086 706.163 499.035 705.974 498.979 705.82C498.92 705.658 498.839 705.487 498.747 705.315C498.561 704.971 498.303 704.575 498.003 704.157C497.401 703.319 496.592 702.34 495.748 701.411C494.903 700.482 494.008 699.586 493.232 698.918C492.845 698.585 492.474 698.296 492.144 698.087C491.979 697.982 491.812 697.89 491.65 697.822C491.534 697.773 491.394 697.726 491.244 697.706L491.089 697.695C491.025 697.695 490.965 697.703 490.908 697.715C493.919 676.724 498.697 659.883 503.763 634.927C505.371 627.006 510.098 609.462 516.424 587.086C516.498 587.081 516.565 587.068 516.622 587.049C516.804 586.988 516.972 586.88 517.111 586.777C517.258 586.668 517.413 586.533 517.572 586.382C517.89 586.079 518.255 585.679 518.644 585.22C519.425 584.298 520.335 583.092 521.214 581.822C522.094 580.552 522.95 579.207 523.619 578.004C524.272 576.828 524.793 575.709 524.932 574.92C525.068 574.151 525.014 573.018 524.882 571.811C524.748 570.582 524.523 569.199 524.283 567.889C524.042 566.577 523.783 565.329 523.577 564.369L523.292 563.048C529.146 542.744 535.717 520.33 542.201 498.349C550.798 469.201 559.248 440.794 565.682 419.045C572.124 397.269 576.531 382.213 577.062 379.714C578.142 374.633 579.984 368.095 581.29 362.896C581.946 360.281 582.465 358.012 582.698 356.405C582.806 355.657 582.844 355.096 582.821 354.724C582.75 354.79 582.669 354.872 582.579 354.972C582.229 355.358 581.804 355.943 581.313 356.707C580.334 358.23 579.15 360.375 577.855 362.846C575.284 367.748 572.254 373.971 569.638 378.835C567.029 383.687 559.542 399.655 552.614 414.688C549.152 422.199 545.835 429.468 543.34 434.982C542.848 436.07 542.388 437.09 541.965 438.029L541.495 437.861H541.493C541.491 437.86 541.487 437.859 541.483 437.857C541.475 437.854 541.462 437.85 541.447 437.845C541.415 437.833 541.367 437.816 541.306 437.795C541.183 437.751 541.003 437.688 540.774 437.607C540.315 437.447 539.659 437.219 538.87 436.949C537.292 436.41 535.179 435.705 533.044 435.041C530.914 434.378 528.745 433.752 527.06 433.375C526.222 433.187 525.476 433.055 524.905 433.016C524.623 432.997 524.345 432.997 524.105 433.042C523.905 433.079 523.517 433.186 523.327 433.566L523.27 433.71C523.173 434.041 523.297 434.353 523.371 434.51C523.476 434.734 523.64 434.971 523.827 435.203C524.204 435.674 524.766 436.243 525.434 436.858C526.777 438.094 528.626 439.584 530.509 440.963C532.39 442.34 534.33 443.625 535.855 444.444C536.609 444.849 537.304 445.164 537.857 445.305C538.126 445.373 538.432 445.42 538.718 445.367C538.756 445.36 538.792 445.35 538.83 445.34C538.164 447.476 536.119 453.83 532.136 460.247C527.594 467.564 520.452 475.095 509.833 476.466C499.067 477.855 492.365 470.176 487.93 462.477C485.704 458.614 483.999 454.658 482.625 451.724C481.932 450.243 481.333 449.044 480.793 448.22C480.524 447.807 480.289 447.521 480.089 447.344C479.91 447.185 479.808 447.157 479.773 447.153C479.805 447.151 479.706 447.148 479.475 447.42C479.248 447.687 478.984 448.114 478.69 448.709C478.105 449.893 477.463 451.617 476.784 453.738C475.428 457.972 473.954 463.678 472.497 469.552C471.041 475.414 469.601 481.445 468.319 486.293C467.678 488.717 467.072 490.858 466.521 492.544C465.98 494.197 465.464 495.503 464.979 496.182C461.543 500.993 455.359 505.124 447.778 505.124C443.952 505.124 441.162 503.955 438.583 502.264C437.306 501.425 436.076 500.455 434.808 499.447C433.535 498.435 432.218 497.38 430.737 496.341C429.902 495.755 428.851 494.626 427.669 493.149C426.475 491.656 425.105 489.754 423.631 487.57C420.683 483.201 417.301 477.674 414.047 471.973C410.793 466.27 407.663 460.384 405.218 455.292C402.785 450.224 400.999 445.877 400.481 443.285C399.48 438.28 399.096 434.533 399.783 431.407C400.48 428.234 402.261 425.779 405.385 423.307C408.516 420.831 411.842 419.409 415.71 419.694C419.554 419.977 423.823 421.937 428.871 425.975C433.963 430.049 438.088 436.299 441.186 440.849C442.76 443.159 444.037 444.983 445.054 445.956C445.58 446.459 445.911 446.607 446.078 446.618C446.123 446.621 446.283 446.639 446.52 446.181C447.616 444.058 447.519 442.194 447.169 440.143C446.823 438.111 446.196 435.803 446.448 433.098C446.695 430.441 449.248 416.33 454.73 403.061C457.471 396.426 460.965 389.952 465.306 385.224C469.653 380.491 474.909 377.45 481.138 377.854C487.383 378.26 492.396 382.302 496.377 387.863C500.363 393.43 503.391 400.618 505.659 407.545C507.928 414.479 509.448 421.192 510.399 425.83C510.626 426.935 510.82 427.923 510.985 428.767C511.104 428.305 511.241 427.8 511.394 427.257C512.02 425.04 512.932 422.144 514.085 418.744C516.248 412.369 519.264 404.204 522.827 395.379L523.635 395.43H523.638C523.64 395.43 523.642 395.43 523.645 395.431C523.651 395.431 523.66 395.431 523.67 395.432C523.692 395.433 523.725 395.435 523.767 395.437C523.851 395.442 523.974 395.449 524.13 395.457C524.443 395.473 524.89 395.493 525.425 395.511C526.494 395.546 527.924 395.573 529.358 395.536C530.783 395.5 532.246 395.401 533.367 395.175C533.921 395.063 534.442 394.91 534.841 394.688C535.224 394.476 535.671 394.094 535.671 393.476C535.671 393.054 535.49 392.615 535.278 392.225C535.055 391.817 534.748 391.373 534.396 390.921C533.691 390.015 532.761 389.013 531.845 388.089C530.927 387.162 530.011 386.299 529.325 385.669C528.982 385.354 528.695 385.096 528.495 384.917C528.394 384.828 528.315 384.758 528.261 384.71L528.183 384.641C528.181 384.64 528.179 384.638 528.178 384.638L528.176 384.636L527.543 384.083C534.626 367.702 543.076 350.682 551.187 339.481C555.502 333.523 560.422 325.788 565.745 317.413C565.748 317.423 565.75 317.433 565.753 317.443C565.836 317.69 565.991 317.918 566.236 318.069C566.472 318.215 566.73 318.25 566.953 318.24C567.374 318.222 567.829 318.034 568.25 317.81C569.117 317.349 570.182 316.54 571.228 315.661C573.335 313.891 575.52 311.707 576.186 311.041L576.195 311.031L576.196 311.03L576.195 311.029C576.679 310.538 576.873 309.861 576.931 309.198C576.99 308.521 576.917 307.768 576.788 307.03C576.593 305.923 576.253 304.775 575.957 303.851L575.68 303.013L575.639 302.906C575.59 302.797 575.516 302.683 575.407 302.585C575.376 302.558 575.344 302.535 575.311 302.514C579.03 296.831 582.861 291.163 586.746 285.839C590.248 281.038 593.801 276.507 597.356 272.483C597.752 272.803 598.322 272.961 598.852 273.041C599.479 273.136 600.211 273.147 600.942 273.086C601.674 273.024 602.428 272.887 603.099 272.671C603.757 272.459 604.397 272.151 604.838 271.71C605.348 271.2 605.514 270.451 605.549 269.763C605.585 269.051 605.488 268.262 605.342 267.527C605.195 266.787 604.992 266.072 604.798 265.498C604.743 265.333 604.684 265.176 604.628 265.028C605.375 264.35 606.121 263.7 606.865 263.084ZM506.826 725.983C506.309 725.724 505.702 725.624 505.025 725.683C503.793 725.793 502.706 726.152 501.967 726.852C501.196 727.584 500.896 728.6 501.094 729.789C501.135 730.031 501.166 730.252 501.195 730.456C501.223 730.656 501.248 730.851 501.276 731.024C501.329 731.358 501.4 731.715 501.57 732.022C501.971 732.749 502.739 732.921 503.69 733.008C504.633 733.093 505.685 733.163 506.554 732.859C507.011 732.7 507.429 732.435 507.76 732.018C508.088 731.606 508.3 731.084 508.406 730.456C508.604 729.282 508.528 728.058 508.001 727.123C507.732 726.646 507.344 726.244 506.826 725.983ZM521.292 668.412C520.235 668.048 519.058 668.361 518.167 668.95C517.272 669.541 516.516 670.508 516.414 671.648C516.377 672.058 516.34 672.403 516.341 672.639C516.342 672.758 516.351 672.925 516.413 673.09C516.487 673.288 516.629 673.46 516.837 673.563C517.009 673.648 517.181 673.664 517.281 673.669H517.987C518.129 673.673 518.292 673.682 518.477 673.703C520.524 673.93 522.28 672.367 522.542 670.466C522.59 670.123 522.653 669.926 522.695 669.818C522.724 669.741 522.729 669.741 522.762 669.659C522.772 669.635 522.797 669.574 522.813 669.502C522.828 669.432 522.858 669.26 522.776 669.065C522.686 668.852 522.521 668.747 522.422 668.701C522.335 668.66 522.253 668.644 522.222 668.638C522.174 668.628 522.054 668.61 522.017 668.604C521.883 668.582 521.655 668.537 521.292 668.412ZM490.362 0.0487044C491.363 -0.109213 492.288 0.103599 492.926 0.882689C493.518 1.60607 493.755 2.69709 493.755 4.03796C493.755 9.30072 492.196 16.8414 489.776 25.4794C487.351 34.135 484.042 43.9544 480.505 53.7987C473.416 73.5328 465.449 93.2774 461.736 104.203C454.313 126.047 449.668 138.143 441.067 159.543C432.46 180.958 412.988 221.9 394.408 261.527C385.109 281.359 360.279 329.853 335.373 379.358C310.454 428.887 285.464 479.418 275.815 503.374C266.173 527.314 258.308 549.068 247.51 564.805C242.1 572.689 235.932 579.098 228.402 583.534C220.866 587.973 212.001 590.415 201.233 590.415C190.348 590.415 182.415 585.766 176.679 578.469C170.965 571.199 167.44 561.318 165.265 550.82C160.916 529.828 161.919 506.081 161.919 495.129C161.919 473.097 166.89 421.974 169.252 399.772C170.438 388.63 173.783 374.24 175.978 362.735C177.08 356.958 177.889 351.924 178.015 348.345C178.078 346.545 177.965 345.185 177.67 344.299C177.525 343.861 177.35 343.587 177.176 343.428C177.018 343.282 176.833 343.204 176.579 343.204C176.247 343.204 175.672 343.293 174.841 343.492C174.026 343.687 173.011 343.976 171.821 344.348C169.441 345.089 166.392 346.151 162.897 347.427C155.909 349.977 147.17 353.372 138.506 356.748C129.847 360.122 121.26 363.479 114.59 365.947C111.256 367.181 108.392 368.197 106.232 368.883C105.153 369.225 104.239 369.489 103.525 369.656C103.168 369.74 102.851 369.802 102.583 369.837C102.328 369.87 102.062 369.888 101.833 369.848C99.8554 369.5 97.0505 369.348 94.1216 369.015C91.2679 368.689 88.3146 368.191 86.3081 367.112C84.4929 366.137 82.4373 365.207 80.814 364.169C79.1753 363.12 77.7653 361.839 77.314 360.022C77.0753 359.061 77.2568 358.12 77.5718 357.276C77.8848 356.438 78.3561 355.629 78.7593 354.931C79.1825 354.198 79.5107 353.617 79.6479 353.137C79.7133 352.907 79.719 352.751 79.6987 352.646C79.6815 352.557 79.6394 352.469 79.5259 352.372C78.9495 351.878 78.3346 351.994 77.2788 352.33C76.3401 352.629 74.9919 353.141 73.6587 352.459C72.8934 352.067 72.474 351.281 72.2397 350.44C72.0016 349.585 71.9176 348.543 71.9214 347.441C71.9289 345.233 72.2911 342.623 72.6382 340.434C72.8307 339.22 73.4651 337.756 74.3442 336.225C75.2308 334.682 76.3969 333.02 77.7026 331.399C80.3057 328.168 83.5176 325.036 86.27 323.315C86.9868 322.867 89.3758 321.751 92.9321 320.169C96.518 318.574 101.353 316.478 107.018 314.058C118.349 309.219 133.011 303.077 147.672 297.04C162.333 291.003 176.998 285.068 188.331 280.64C193.996 278.426 198.834 276.586 202.424 275.299C204.219 274.655 205.708 274.147 206.835 273.799C207.399 273.625 207.879 273.488 208.266 273.394C208.636 273.305 208.974 273.24 209.225 273.238C211.861 273.22 214.105 272.853 216.421 272.665C218.707 272.479 220.974 272.482 223.426 273.27C224.712 273.684 226.446 274.781 228.334 276.257C230.243 277.748 232.373 279.677 234.461 281.82C238.623 286.091 242.692 291.286 244.495 295.639C246.286 299.963 246.811 303.589 246.965 307.272C247.042 309.104 247.027 310.959 247.032 312.902C247.036 314.852 247.059 316.907 247.209 319.172C247.365 321.517 247.102 326.004 246.673 331.404C246.243 336.822 245.64 343.232 245.103 349.44C244.565 355.657 244.094 361.677 243.922 366.348C243.836 368.685 243.827 370.668 243.918 372.161C243.964 372.908 244.035 373.517 244.129 373.977C244.211 374.376 244.3 374.601 244.363 374.713C244.471 374.66 244.657 374.533 244.921 374.262C245.534 373.632 246.324 372.499 247.269 370.918C249.147 367.774 251.526 363.043 254.176 357.539C259.463 346.557 265.81 332.532 271.277 322.235C274.332 316.481 279.645 306.018 286.197 293.137C287.14 292.679 288.266 291.665 289.456 290.495C290.076 289.885 290.737 289.208 291.422 288.51C292.11 287.809 292.824 287.083 293.56 286.366C295.035 284.928 296.577 283.541 298.125 282.477C299.679 281.409 301.183 280.706 302.583 280.564C305.419 280.277 307.797 281.974 309.948 283.445C310.47 283.803 310.985 284.148 311.476 284.426C311.964 284.701 312.467 284.933 312.969 285.036C313.486 285.142 314.022 285.118 314.533 284.854C315.032 284.597 315.432 284.149 315.76 283.556C316.088 282.963 316.262 282.394 316.279 281.839C316.296 281.28 316.153 280.777 315.913 280.326C315.452 279.461 314.605 278.747 313.818 278.099C312.141 276.718 310.533 275.457 310.513 273.232C310.504 272.17 310.991 271.237 311.832 270.325C312.682 269.402 313.83 268.566 315.038 267.689C316.217 266.833 317.462 265.932 318.376 264.919C319.304 263.892 319.961 262.675 319.839 261.189C319.731 259.871 319.412 258.887 318.947 258.087C318.486 257.293 317.903 256.718 317.337 256.205C316.21 255.181 315.123 254.362 314.478 252.376C313.796 250.273 313.642 248.673 313.574 246.921C313.507 245.194 313.524 243.274 313.189 240.641C324.263 219.501 335.386 198.952 343.926 184.935C366.102 148.538 380.504 129.901 406.605 96.2509C419.646 79.4377 441.149 51.1002 459.388 29.5546C468.501 18.7892 476.831 9.68063 482.898 4.55456C484.417 3.27097 485.808 2.22632 487.043 1.46472C488.268 0.709792 489.389 0.202224 490.362 0.0487044ZM510.414 503.125C511.592 503.125 512.52 503.729 513.212 504.663C513.891 505.578 514.374 506.841 514.722 508.289C515.42 511.193 515.623 515.071 515.565 519.043C515.449 526.992 514.279 535.536 513.728 537.924C513.19 540.255 510.522 551.93 507.487 562.857C505.97 568.317 504.357 573.611 502.867 577.464C502.124 579.384 501.399 580.981 500.717 582.066C500.379 582.604 500.025 583.061 499.651 583.364C499.28 583.665 498.77 583.905 498.208 583.718C497.735 583.56 497.399 583.169 497.158 582.762C496.908 582.34 496.699 581.8 496.52 581.183C496.16 579.946 495.885 578.276 495.675 576.326C495.255 572.418 495.088 567.268 495.088 561.929C495.088 556.131 495.286 550.075 495.574 545.103H495.817C495.857 545.103 495.915 545.103 495.989 545.102C496.137 545.101 496.348 545.098 496.601 545.093C497.106 545.082 497.783 545.061 498.461 545.018C499.134 544.976 499.834 544.913 500.375 544.811C500.64 544.762 500.908 544.696 501.124 544.601C501.23 544.555 501.364 544.484 501.481 544.374C501.603 544.26 501.751 544.056 501.751 543.77C501.751 543.577 501.679 543.405 501.64 543.319C501.59 543.209 501.524 543.092 501.454 542.975C501.311 542.741 501.116 542.46 500.893 542.157C500.445 541.549 499.852 540.809 499.267 540.099C498.681 539.386 498.095 538.695 497.656 538.183C497.436 537.927 497.253 537.715 497.125 537.567C497.061 537.494 497.01 537.436 496.975 537.396C496.958 537.377 496.945 537.361 496.936 537.35C496.932 537.346 496.928 537.341 496.925 537.339C496.924 537.338 496.924 537.336 496.923 537.336L496.922 537.335L496.291 536.612C496.337 536.263 496.382 535.946 496.429 535.666C497.097 531.659 498.603 523.624 500.867 516.581C501.997 513.064 503.329 509.754 504.862 507.31C506.364 504.915 508.204 503.125 510.414 503.125ZM372.17 311.395C375.631 305.363 380.353 300.704 386.525 301.27H386.526C392.737 301.842 396.15 307.286 398.25 313.802C400.379 320.402 401.391 328.797 402.384 336.409C403.401 344.205 403.278 356.071 402.553 369.614C401.827 383.185 400.492 398.535 399.058 413.339C396.188 442.967 391.24 474.252 387.699 488.821C385.92 496.138 383.072 504.105 380.78 510.791C379.628 514.151 378.62 517.18 377.937 519.676C377.591 520.94 377.341 522.029 377.194 522.932C377.045 523.843 377.009 524.526 377.066 524.993C377.667 529.906 378.697 532.508 380.337 537.391C380.697 538.46 381.911 540.823 383.642 543.928C385.344 546.982 387.474 550.629 389.579 554.198C391.678 557.758 393.761 561.253 395.351 563.966C396.147 565.324 396.828 566.498 397.332 567.399C397.583 567.849 397.795 568.24 397.957 568.555C398.104 568.842 398.251 569.142 398.33 569.377V569.378C398.71 570.519 398.99 572.714 398.783 574.987L398.735 575.442C398.445 577.849 397.531 580.68 395.127 582.244H395.126C392.612 583.879 389.953 583.201 387.664 582.021C385.425 580.868 383.029 578.953 380.989 577.563C376.348 574.402 372.576 568.441 369.921 563.797C369.206 562.544 368.467 560.823 367.73 559.015C366.978 557.168 366.225 555.221 365.439 553.382C364.653 551.542 363.876 549.911 363.118 548.734C362.738 548.145 362.395 547.721 362.098 547.449C361.87 547.24 361.722 547.17 361.652 547.146L361.608 547.136C361.129 547.085 360.311 547.256 359.173 547.733C358.083 548.19 356.875 548.852 355.692 549.567C355.291 549.81 354.897 550.057 354.514 550.301C353.151 551.706 351.609 553.007 350.015 554.043C348.074 555.304 345.961 556.24 343.951 556.427C341.739 556.631 339.543 555.504 337.66 554.192C335.739 552.855 333.834 551.096 332.219 549.675C331.395 548.949 330.646 548.312 329.974 547.814C329.284 547.304 328.769 547.016 328.411 546.903C328.294 546.867 328.225 546.859 328.19 546.857C328.127 546.935 327.947 547.217 327.818 547.989C327.443 550.234 326.219 552.994 324.477 555.757C322.72 558.542 320.375 561.43 317.663 563.933C312.311 568.871 305.149 572.63 298.114 570.392C291.238 568.205 287.951 563.116 286.431 557.838C284.929 552.621 285.109 547.086 285.191 543.739C285.364 536.688 287.329 532.76 289.961 526.591C291.339 523.362 294.434 518.125 297.722 513.382C299.373 511.001 301.094 508.713 302.699 506.84C304.273 505.002 305.832 503.448 307.159 502.65C309.628 501.165 312.99 500.297 315.622 499.798C316.958 499.544 318.148 499.379 319.004 499.276C319.184 499.255 319.349 499.237 319.499 499.221C319.671 498.695 319.925 497.953 320.261 497.07C320.943 495.28 321.972 492.88 323.348 490.471C324.699 488.106 326.021 486.223 327.684 484.961C329.406 483.654 331.381 483.093 333.856 483.136C336.521 483.181 338.564 484.345 340.215 485.995C341.826 487.605 343.118 489.732 344.315 491.796L344.455 492.052C345.12 493.344 345.284 494.842 345.236 496.351C345.184 497.967 344.879 499.755 344.534 501.572C343.826 505.287 342.939 509.215 343.16 513.044C343.397 517.163 343.461 521.535 343.93 525.379C344.163 527.285 344.49 528.99 344.962 530.396C345.243 531.232 345.565 531.926 345.923 532.485C346.46 532.018 346.95 531.533 347.377 530.992C350.067 527.591 351.57 525.765 353.195 521.966C353.307 521.703 353.406 521.209 353.422 520.406C353.438 519.628 353.376 518.664 353.245 517.529C352.982 515.258 352.461 512.434 351.841 509.266C350.611 502.977 348.999 495.384 348.427 488.618C347.289 475.154 347.981 440.754 351.095 410.409C354.214 380.023 361.113 347.628 364.448 332.955C366.125 325.573 368.66 317.516 372.17 311.395ZM473.07 497.128C474.355 497.072 475.584 497.53 476.685 498.222C477.787 498.914 478.801 499.865 479.675 500.865C481.412 502.852 482.692 505.141 483.06 506.246C483.135 506.471 483.163 506.791 483.177 507.11C483.193 507.457 483.193 507.893 483.183 508.402C483.162 509.421 483.094 510.763 482.989 512.322C482.778 515.442 482.416 519.457 481.98 523.549C481.544 527.641 481.034 531.818 480.526 535.262C480.022 538.673 479.509 541.446 479.054 542.671C478.194 544.985 477.014 547.682 475.792 549.893C475.181 550.998 474.55 552 473.932 552.775C473.337 553.522 472.674 554.166 471.977 554.398C471.421 554.584 470.929 554.356 470.582 554.059C470.242 553.77 469.948 553.346 469.69 552.884C469.168 551.948 468.682 550.645 468.255 549.304C467.405 546.63 466.718 543.555 466.459 542.615C466.372 542.299 466.274 541.524 466.167 540.497C466.058 539.437 465.932 538.034 465.799 536.402C465.534 533.138 465.238 528.948 464.981 524.738C464.724 520.529 464.505 516.295 464.391 512.944C464.334 511.27 464.303 509.81 464.308 508.682C464.311 508.119 464.322 507.633 464.344 507.241C464.365 506.863 464.398 506.528 464.457 506.295C464.81 504.88 465.739 502.68 467.158 500.797C468.567 498.926 470.561 497.236 473.07 497.128ZM319.175 519.117C318.511 518.785 317.701 518.95 316.812 519.481C315.925 520.012 314.959 520.907 313.983 522.031C312.03 524.28 310.031 527.447 308.513 530.445C306.996 533.443 305.997 536.775 305.543 539.44C305.317 540.773 305.226 541.939 305.276 542.813C305.301 543.249 305.361 543.614 305.457 543.891C305.552 544.168 305.683 544.355 305.848 544.437L305.912 544.463C305.979 544.483 306.058 544.49 306.153 544.479C306.284 544.465 306.423 544.42 306.558 544.363L306.795 544.249C307.043 544.118 307.322 543.935 307.624 543.709C308.428 543.105 309.401 542.188 310.412 541.105C312.433 538.94 314.599 536.108 315.843 533.776C317.088 531.444 318.588 528.112 319.443 525.197C319.87 523.74 320.136 522.387 320.129 521.314C320.122 520.239 319.839 519.45 319.175 519.117ZM604.286 513.291C603.621 512.959 602.811 513.125 601.922 513.656C601.035 514.187 600.07 515.082 599.094 516.206C597.142 518.455 595.142 521.621 593.625 524.619C592.107 527.617 591.108 530.949 590.655 533.614C590.428 534.946 590.338 536.113 590.387 536.987C590.412 537.423 590.473 537.789 590.568 538.065C590.664 538.342 590.794 538.529 590.959 538.612L591.023 538.638C591.09 538.658 591.168 538.664 591.263 538.653C591.394 538.638 591.534 538.594 591.669 538.537C591.971 538.409 592.332 538.185 592.734 537.884C593.539 537.28 594.512 536.363 595.523 535.28C597.544 533.114 599.71 530.282 600.955 527.95C602.199 525.618 603.699 522.286 604.554 519.371C604.981 517.914 605.247 516.56 605.24 515.488C605.233 514.412 604.95 513.623 604.286 513.291ZM380.466 350.535C380.428 350.537 380.39 350.548 380.35 350.57C380.302 350.597 380.256 350.636 380.215 350.68C380.124 350.777 380.028 350.922 379.929 351.11C379.731 351.488 379.519 352.047 379.294 352.766C378.844 354.204 378.344 356.288 377.812 358.866C376.748 364.022 375.554 371.16 374.37 379.083C372 394.929 369.668 413.92 368.483 426.496C367.298 439.072 366.298 454.086 365.928 466.028C365.743 471.999 365.716 477.204 365.901 480.951C365.993 482.824 366.139 484.333 366.345 485.391C366.448 485.92 366.567 486.339 366.701 486.633C366.759 486.761 366.829 486.885 366.914 486.979C366.994 487.069 367.071 487.115 367.152 487.133H367.151C367.198 487.143 367.236 487.137 367.276 487.122C367.322 487.104 367.371 487.072 367.412 487.034C367.501 486.952 367.594 486.82 367.691 486.642C367.884 486.287 368.09 485.748 368.305 485.05C368.736 483.652 369.205 481.612 369.698 479.122C370.683 474.141 371.757 467.355 372.778 460.281C374.82 446.133 376.651 430.828 377.145 426.496C377.639 422.164 379.138 403.174 380.181 385.266C380.702 376.313 381.109 367.629 381.219 361.184C381.274 357.962 381.256 355.299 381.14 353.442C381.082 352.514 381 351.787 380.89 351.292C380.835 351.045 380.774 350.855 380.706 350.727L380.665 350.66C380.649 350.637 380.63 350.615 380.61 350.595C380.577 350.562 380.549 350.548 380.525 350.541L380.466 350.535ZM657.673 409.837C656.215 409.644 654.882 410.642 653.914 411.857C653.43 412.464 653.037 413.125 652.765 413.718C652.494 414.309 652.344 414.834 652.343 415.168C652.343 415.503 652.217 417.67 652.061 420.739C651.905 423.81 651.718 427.787 651.593 431.743C651.468 435.699 651.406 439.636 651.5 442.624C651.546 444.117 651.632 445.375 651.768 446.279C651.836 446.731 651.918 447.096 652.013 447.357C652.059 447.483 652.111 447.59 652.167 447.67C652.222 447.748 652.281 447.797 652.343 447.818L652.39 447.828C652.438 447.833 652.489 447.822 652.543 447.795C652.614 447.759 652.689 447.695 652.769 447.605C652.928 447.426 653.103 447.144 653.289 446.775L653.431 446.48C653.769 445.755 654.143 444.766 654.54 443.592C655.445 440.906 656.467 437.24 657.424 433.492C658.382 429.744 659.277 425.912 659.933 422.893C660.261 421.384 660.529 420.076 660.715 419.085C660.808 418.59 660.881 418.173 660.93 417.849C660.979 417.525 661.005 417.293 661.005 417.168L661 416.761C660.974 415.738 660.843 414.241 660.433 412.898C659.964 411.362 659.131 410.03 657.673 409.837ZM456.499 434.494C454.164 434.291 452.465 436.446 452.443 438.482C452.421 440.502 453.634 442.253 455.701 442.483C457.764 442.713 459.336 441.292 459.758 439.294C459.981 438.24 459.732 437.105 459.168 436.212C458.603 435.314 457.676 434.596 456.499 434.494ZM760.801 379.78C760.928 379.791 761.16 379.825 761.359 379.985L761.442 380.062L761.497 380.126C761.615 380.279 761.669 380.449 761.697 380.569C761.732 380.72 761.747 380.885 761.752 381.05C761.763 381.38 761.734 381.793 761.675 382.264C761.558 383.211 761.311 384.482 760.958 385.981C760.25 388.984 759.101 392.962 757.643 397.226C754.736 405.727 750.56 415.489 746.148 420.919C741.747 426.335 736.643 429.754 731.832 431.215C727.028 432.673 722.453 432.19 719.235 429.687C715.936 427.122 715.476 422.958 716.238 418.472C717.002 413.969 719.034 408.903 721.031 404.244C721.579 402.966 722.615 401.626 723.956 400.273C725.304 398.914 726.996 397.507 728.9 396.099C732.708 393.285 737.408 390.436 742.009 387.93C746.612 385.422 751.132 383.246 754.586 381.779C756.311 381.047 757.784 380.485 758.875 380.147C759.416 379.98 759.887 379.86 760.257 379.807C760.44 379.78 760.628 379.766 760.801 379.78ZM422.548 423.837C421.656 423.714 420.802 423.816 420.075 424.235C419.342 424.657 418.813 425.356 418.496 426.278C418.131 427.335 418.445 428.513 419.034 429.404C419.625 430.299 420.591 431.055 421.732 431.157C423.854 431.347 425.561 429.921 425.786 427.901C426.013 425.854 424.45 424.099 422.548 423.837ZM383.345 414.855C382.887 414.654 382.337 414.623 381.719 414.708C381.003 414.807 380.445 415.136 380.051 415.626C379.67 416.101 379.475 416.69 379.391 417.274C379.226 418.434 379.474 419.758 379.858 420.741C380.025 421.168 380.155 421.525 380.264 421.766C380.361 421.98 380.527 422.319 380.878 422.484C381.23 422.649 381.592 422.556 381.776 422.509C382.05 422.438 382.229 422.375 382.63 422.28C383.075 422.175 383.46 422.015 383.759 421.749C384.072 421.471 384.23 421.132 384.313 420.784C384.39 420.458 384.407 420.094 384.418 419.748C384.43 419.384 384.436 419.001 384.474 418.557C384.514 418.09 384.55 417.609 384.542 417.166C384.535 416.727 384.483 416.268 384.315 415.862C384.137 415.434 383.828 415.067 383.345 414.855ZM212.52 359.863C211.936 359.899 211.446 359.955 211.046 360.067C210.632 360.183 210.275 360.371 210 360.69C209.735 360.997 209.596 361.367 209.499 361.742C209.402 362.113 209.328 362.571 209.24 363.079C208.805 365.575 210.497 367.877 213.07 368.505C214.283 368.801 215.41 368.797 216.303 368.23C217.207 367.657 217.692 366.625 217.885 365.288C218.105 363.766 217.377 362.361 216.348 361.389C215.322 360.42 213.893 359.778 212.52 359.863ZM102.889 344.743C102.136 344.743 101.137 344.919 100.283 345.479C99.3977 346.06 98.714 347.03 98.6186 348.491C98.4416 351.209 99.918 352.685 101.298 352.653C101.649 352.645 102.073 352.497 102.445 352.332C102.844 352.155 103.282 351.916 103.694 351.65C104.105 351.385 104.508 351.082 104.83 350.771C105.122 350.489 105.453 350.101 105.542 349.66C105.612 349.308 105.575 348.837 105.497 348.391C105.415 347.921 105.272 347.391 105.078 346.891C104.886 346.396 104.628 345.891 104.3 345.499C103.98 345.116 103.507 344.743 102.889 344.743ZM152.665 328.881C152.109 328.094 151.169 327.711 149.84 327.883C148.669 328.034 147.831 328.337 147.319 329.076C147.078 329.424 146.943 329.823 146.848 330.237C146.754 330.648 146.69 331.128 146.619 331.648L146.6 331.785C146.438 332.965 146.581 333.891 147.164 334.502C147.735 335.1 148.558 335.207 149.259 335.207C149.748 335.207 150.237 335.028 150.666 334.79C151.103 334.547 151.526 334.215 151.896 333.846C152.266 333.476 152.598 333.053 152.84 332.616C153.079 332.187 153.257 331.697 153.257 331.209C153.257 330.514 153.168 329.594 152.665 328.881ZM572.508 324.557C571.31 324.329 570.109 324.769 569.23 325.504C568.352 326.238 567.708 327.34 567.719 328.55C567.723 329.023 567.739 329.422 567.81 329.722C567.848 329.879 567.912 330.059 568.036 330.219C568.17 330.393 568.344 330.504 568.532 330.564C568.701 330.618 568.868 330.625 568.997 330.623C569.127 330.621 569.268 330.608 569.398 330.596C569.668 330.57 569.979 330.538 570.377 330.543C571.378 330.554 572.276 330.287 572.985 329.723C573.694 329.158 574.158 328.34 574.368 327.349C574.449 326.965 574.545 326.584 574.588 326.335C574.63 326.099 574.686 325.711 574.482 325.362C574.27 325 573.893 324.867 573.635 324.794C573.355 324.714 572.967 324.645 572.508 324.557ZM326.512 312.552C325.524 312.541 324.625 312.782 323.911 313.339C323.193 313.898 322.73 314.722 322.52 315.75C322.284 316.906 322.734 318.109 323.459 318.992C324.187 319.877 325.289 320.559 326.511 320.548C328.818 320.527 330.503 318.751 330.503 316.55C330.503 314.324 328.61 312.575 326.512 312.552ZM192.973 311.182C192.631 311.195 192.306 311.22 191.905 311.22C191.5 311.22 191.143 311.219 190.856 311.242C190.575 311.265 190.262 311.317 189.989 311.483C189.684 311.669 189.515 311.943 189.416 312.232C189.325 312.496 189.281 312.812 189.244 313.144C189.147 314.01 189.423 314.759 190.099 315.255C190.722 315.711 191.594 315.884 192.571 315.884C193.036 315.884 193.453 315.868 193.803 315.806C194.154 315.743 194.512 315.622 194.794 315.351C195.086 315.071 195.213 314.713 195.259 314.35C195.304 314 195.282 313.592 195.232 313.144C195.179 312.671 195.078 312.254 194.872 311.923C194.644 311.558 194.323 311.351 193.96 311.255C193.638 311.169 193.284 311.171 192.973 311.182ZM599.464 292.417C597.767 292.277 595.947 292.346 594.516 292.708C593.803 292.888 593.139 293.152 592.634 293.538C592.116 293.935 591.736 294.488 591.708 295.2C591.622 297.327 592.93 299.432 594.166 300.737C594.785 301.392 595.458 301.923 596.03 302.164C596.291 302.274 596.687 302.39 597.07 302.244C597.561 302.056 597.704 301.59 597.705 301.224C597.705 301.119 597.77 300.92 598.21 300.595C598.637 300.279 599.251 299.964 600.018 299.58C601.497 298.839 603.451 297.892 604.861 296.342C605.078 296.102 605.247 295.827 605.317 295.516C605.389 295.195 605.345 294.882 605.214 294.601C604.971 294.081 604.448 293.714 603.916 293.451C602.817 292.909 601.153 292.556 599.464 292.417ZM190.572 289.896C190.015 289.896 189.532 290.171 189.157 290.496C188.775 290.826 188.442 291.263 188.168 291.719C187.633 292.61 187.24 293.73 187.24 294.56C187.24 295.556 187.859 296.265 188.712 296.681C189.544 297.085 190.663 297.255 191.92 297.225C192.649 297.208 193.254 296.995 193.737 296.631C194.213 296.272 194.533 295.796 194.749 295.309C195.172 294.352 195.236 293.251 195.236 292.561C195.236 291.984 194.942 291.527 194.584 291.197C194.232 290.872 193.775 290.627 193.318 290.444C192.405 290.079 191.321 289.896 190.572 289.896ZM373.2 205.939C372.516 205.887 371.848 205.903 371.258 206.166C370.637 206.443 370.198 206.948 369.875 207.662C369.586 208.303 369.404 209.03 369.851 209.647C370.053 209.926 370.339 210.111 370.63 210.245C370.923 210.38 371.272 210.486 371.655 210.582C372.565 210.809 373.535 210.652 374.307 210.211C375.083 209.767 375.707 209.004 375.81 208.006C375.853 207.592 375.841 207.198 375.701 206.86C375.543 206.481 375.258 206.251 374.935 206.128C374.651 206.02 374.333 205.994 374.071 205.98C373.767 205.965 373.524 205.964 373.2 205.939Z" fill="black"/>
<path d="M122.606 308.555C122.606 308.555 117.942 310.554 115.276 311.886C112.611 313.219 117.942 323.214 122.606 321.215C127.271 319.216 122.606 308.555 122.606 308.555Z" fill="#FC9046"/>
<path d="M127.937 328.545C126.586 324.333 126.604 317.217 127.937 317.217C129.27 317.217 135.435 321.827 137.932 326.546C140.43 331.265 141.42 339.206 139.931 340.539C138.442 341.872 129.288 332.757 127.937 328.545Z" fill="#FC9046"/>
<path d="M127.937 349.868C127.271 348.825 129.01 345.203 129.936 344.537C130.861 343.871 135.507 343.871 135.933 344.537C136.359 345.203 134.859 349.201 133.934 349.868C133.009 350.534 128.603 350.911 127.937 349.868Z" fill="#FC9046"/>
<path d="M240.548 324.547C242.859 325.005 246.545 324.547 246.545 323.881C246.545 323.214 246.033 316.644 244.546 313.885C243.06 311.127 240.953 308.433 239.215 307.888C237.477 307.344 236.191 307.097 234.551 307.888C232.911 308.68 232.24 313.885 232.552 315.884C232.864 317.883 238.237 324.089 240.548 324.547Z" fill="#FC9046"/>
<path d="M235.884 324.547C237.883 324.547 241.881 328.545 241.881 329.878C241.881 331.21 237.216 335.287 235.884 335.208C234.551 335.13 230.553 331.877 230.553 329.878C230.553 327.879 233.885 324.547 235.884 324.547Z" fill="#FC9046"/>
<path d="M209.23 389.182C209.23 388.078 210.136 387.339 211.229 387.183C212.322 387.026 213.894 387.881 213.894 389.182C213.894 390.483 212.322 391.337 211.229 391.181C210.136 391.024 209.23 390.286 209.23 389.182Z" fill="#FC9046"/>
<path d="M293.189 402.508C293.855 402.464 293.855 392.513 293.189 392.513C292.522 392.513 288.042 394.418 287.858 397.178C287.674 399.938 292.522 402.553 293.189 402.508Z" fill="#FC9046"/>
<path d="M271.866 364.527C271.2 365.193 262.677 357.197 263.203 356.531C263.73 355.865 271.323 355.361 271.866 355.865C272.408 356.369 272.532 363.861 271.866 364.527Z" fill="#FC9046"/>
<path d="M299.852 333.209C297.853 333.875 296.927 333.752 295.188 333.209C293.449 332.666 297.853 317.217 301.851 319.216C305.849 321.215 301.851 332.543 299.852 333.209Z" fill="#FC9046"/>
<path d="M311.846 335.208L307.182 339.872C306.515 340.539 316.51 346.536 317.177 345.203C317.843 343.87 312.512 334.542 311.846 335.208Z" fill="#FC9046"/>
<path d="M317.177 289.897C317.339 288.434 318.379 287.394 319.842 287.232C321.305 287.069 323.358 288.907 323.174 290.563C322.99 292.22 321.498 293.413 319.842 293.229C318.186 293.045 317.014 291.36 317.177 289.897Z" fill="#FC9046"/>
<path d="M322.507 280.568C322.524 278.728 323.999 277.253 325.839 277.237C327.679 277.22 329.449 279.789 329.171 281.235C328.892 282.68 327.951 283.622 326.506 283.9C325.06 284.179 322.491 282.408 322.507 280.568Z" fill="#FC9046"/>
<path d="M377.813 229.927C377.696 228.265 379.279 225.729 381.145 225.929C383.011 226.129 384.007 228.097 383.811 229.927C383.614 231.756 382.135 233.442 380.479 233.258C378.823 233.074 377.931 231.589 377.813 229.927Z" fill="#FC9046"/>
<path d="M400.469 105.322L409.798 93.3276C409.798 93.3276 422.458 96.6593 422.458 98.6583C422.458 100.657 400.469 105.322 400.469 105.322Z" fill="#FC9046"/>
<path d="M445.78 79.3345C444.022 76.3067 443.781 64.7112 445.78 64.6751C447.779 64.6389 451.491 71.5512 452.443 75.3365C453.396 79.1217 455.79 84.3051 452.443 85.3315C449.096 86.358 447.537 82.3623 445.78 79.3345Z" fill="#FC9046"/>
<path d="M462.438 75.3365C462.223 74.0038 465.77 71.9296 467.103 72.0048C468.435 72.08 469.102 72.271 469.102 74.6701C469.102 77.0692 468.435 77.224 467.103 77.3355C465.77 77.447 462.654 76.6691 462.438 75.3365Z" fill="#FC9046"/>
<path d="M355.824 529.779C355.876 528.857 357.823 527.114 358.49 526.447C359.156 525.781 363.243 529.779 363.154 531.112C363.065 532.444 359.156 534.863 357.823 534.443C356.491 534.024 355.773 530.701 355.824 529.779Z" fill="#FC9046"/>
<path d="M392.473 456.482C392.262 456.059 374.73 456.032 374.482 456.482C374.233 456.932 372.483 462.479 373.149 462.479C373.815 462.479 391.807 461.812 391.807 461.812C391.807 461.812 392.684 456.904 392.473 456.482Z" fill="#FC9046"/>
<path d="M452.443 455.815C452.443 453.816 405.8 454.483 405.8 454.483L409.131 461.812C409.131 461.812 452.443 457.814 452.443 455.815Z" fill="#FC9046"/>
<path d="M415.128 393.18C417.337 392.446 419.793 390.466 420.459 390.514C421.125 390.563 423.791 397.844 425.123 399.177C426.456 400.509 393.139 391.847 392.473 391.181C391.807 390.514 390.474 386.516 391.807 385.85C393.139 385.184 412.919 393.913 415.128 393.18Z" fill="#FC9046"/>
<path d="M403.134 421.832C405.504 425.451 409.524 426.4 413.129 424.497C416.735 422.594 418.173 418.293 416.461 414.502C414.749 410.712 410.523 408.782 406.466 410.504C402.409 412.226 400.765 418.213 403.134 421.832Z" fill="#FC9046"/>
<path d="M433.119 464.478C433.37 463.244 433.843 462.661 435.118 462.479C436.394 462.297 437.873 463.716 437.784 465.144C437.695 466.572 436.51 467.666 435.118 467.497C433.727 467.328 432.869 465.712 433.119 464.478Z" fill="#FC9046"/>
<path d="M455.775 425.83C458.116 429.741 466.311 430.436 469.768 425.83C473.225 421.224 467.698 411.399 463.105 411.837C458.511 412.275 458.223 413.588 456.441 416.501C454.66 419.414 453.434 421.919 455.775 425.83Z" fill="#FC9046"/>
<path d="M481.096 409.838C480.429 409.838 476.292 411.171 475.765 412.503C475.239 413.836 481.096 417.834 482.428 417.834C483.761 417.834 492.174 415.835 492.423 413.836C492.673 411.837 481.762 409.838 481.096 409.838Z" fill="#FC9046"/>
<path d="M491.091 424.497C489.758 423.471 482.798 419.085 480.429 422.498C478.06 425.911 482.007 429.138 485.094 431.827C488.181 434.516 492.423 434.985 495.089 435.159C497.754 435.333 510.415 431.161 511.081 429.162C511.747 427.163 511.94 427.891 509.748 424.497C507.556 421.104 495.089 428.495 494.423 428.495C493.756 428.495 492.423 425.524 491.091 424.497Z" fill="#FC9046"/>
<path d="M536.402 421.166C534.856 419.833 520.41 419.438 517.744 422.498C515.079 425.558 539.776 437.158 540.4 435.159C541.024 433.16 537.947 422.498 536.402 421.166Z" fill="#FC9046"/>
<path d="M541.732 403.175C540.548 401.842 537.444 401.252 535.735 403.175C534.026 405.097 537.386 409.753 538.401 409.838C539.416 409.923 542.917 404.507 541.732 403.175Z" fill="#FC9046"/>
<path d="M555.726 406.506C556.392 405.174 560.76 395.845 561.056 395.179C561.352 394.512 551.57 395.179 551.061 395.845C550.553 396.511 555.059 407.839 555.726 406.506Z" fill="#FC9046"/>
<path d="M563.722 337.207C562.802 335.919 563.314 334.191 564.388 333.209C565.461 332.227 566.165 331.843 567.72 332.543C569.274 333.242 569.288 336.926 567.72 337.874C566.151 338.821 564.642 338.495 563.722 337.207Z" fill="#FC9046"/>
<path d="M599.037 327.878C604.454 324.551 611.52 319.178 613.031 323.88C614.541 328.583 610.258 328.09 607.7 333.209C605.142 338.328 606.13 349.45 601.036 350.534C595.943 351.618 595.932 350.898 593.04 349.201C590.149 347.504 588.876 347.026 587.71 341.872C586.544 336.717 593.621 331.206 599.037 327.878Z" fill="#FC9046"/>
<path d="M602.369 315.884C604.844 317.522 611.36 319.55 612.364 315.884C613.369 312.219 608.11 310.111 605.035 309.887C601.959 309.664 599.343 309.657 599.037 311.886C598.732 314.116 599.894 314.247 602.369 315.884Z" fill="#FC9046"/>
<path d="M584.378 415.169C588.04 412.799 592.055 414.614 593.707 417.168C595.359 419.721 595.644 419.714 594.373 423.165C593.102 426.616 580.716 417.538 584.378 415.169Z" fill="#FC9046"/>
<path d="M550.395 629.063C551.728 627.064 553.06 619.734 553.06 618.402C553.06 617.069 547.235 614.43 547.063 611.738C546.891 609.046 548.396 608.968 548.396 607.074C548.396 605.179 548.607 603.662 547.063 602.41C545.519 601.157 545.289 601.113 541.732 602.41C538.176 603.706 538.89 610.705 540.4 616.403C541.91 622.1 549.062 631.062 550.395 629.063Z" fill="#FC9046"/>
<path d="M532.404 645.721C537.633 645.822 538.004 645.49 540.4 641.057C542.796 636.624 536.046 626.275 529.738 628.397C523.431 630.518 527.174 645.621 532.404 645.721Z" fill="#FC9046"/>
<path d="M522.409 674.374C522.567 672.61 524.558 671.387 526.407 671.709C528.255 672.03 529.988 674.74 529.072 676.373C528.156 678.006 526.664 678.168 525.074 677.706C523.484 677.244 522.251 676.138 522.409 674.374Z" fill="#FC9046"/>
<path d="M505.75 673.041C507.905 673.774 508.894 675.425 508.416 677.706C507.937 679.986 504.284 681.449 502.419 680.371C500.553 679.294 500.164 678.458 500.42 676.373C500.675 674.288 503.595 672.308 505.75 673.041Z" fill="#FC9046"/>
<path d="M477.098 524.448C476.431 521.783 465.395 518.601 465.395 519.934C465.395 521.266 465.953 534.325 466.436 535.776C466.92 537.226 477.764 527.113 477.098 524.448Z" fill="#FC9046"/>
<path d="M515.079 484.468C516.412 484.235 527.873 489.799 527.739 490.465C527.606 491.131 515.745 492.464 514.413 492.464C513.08 492.464 507.957 491.798 508.416 487.8C508.874 483.802 513.746 484.701 515.079 484.468Z" fill="#FC9046"/>
<path d="M122.606 308.555C122.606 308.555 117.942 310.554 115.276 311.886C112.611 313.219 117.942 323.214 122.606 321.215C127.271 319.216 122.606 308.555 122.606 308.555Z" stroke="#FC9046" stroke-width="1.33267"/>
<path d="M127.937 328.545C126.586 324.333 126.604 317.217 127.937 317.217C129.27 317.217 135.435 321.827 137.932 326.546C140.43 331.265 141.42 339.206 139.931 340.539C138.442 341.872 129.288 332.757 127.937 328.545Z" stroke="#FC9046" stroke-width="1.33267"/>
<path d="M127.937 349.868C127.271 348.825 129.01 345.203 129.936 344.537C130.861 343.871 135.507 343.871 135.933 344.537C136.359 345.203 134.859 349.201 133.934 349.868C133.009 350.534 128.603 350.911 127.937 349.868Z" stroke="#FC9046" stroke-width="1.33267"/>
<path d="M240.548 324.547C242.859 325.005 246.545 324.547 246.545 323.881C246.545 323.214 246.033 316.644 244.546 313.885C243.06 311.127 240.953 308.433 239.215 307.888C237.477 307.344 236.191 307.097 234.551 307.888C232.911 308.68 232.24 313.885 232.552 315.884C232.864 317.883 238.237 324.089 240.548 324.547Z" stroke="#FC9046" stroke-width="1.33267"/>
<path d="M235.884 324.547C237.883 324.547 241.881 328.545 241.881 329.878C241.881 331.21 237.216 335.287 235.884 335.208C234.551 335.13 230.553 331.877 230.553 329.878C230.553 327.879 233.885 324.547 235.884 324.547Z" stroke="#FC9046" stroke-width="1.33267"/>
<path d="M209.23 389.182C209.23 388.078 210.136 387.339 211.229 387.183C212.322 387.026 213.894 387.881 213.894 389.182C213.894 390.483 212.322 391.337 211.229 391.181C210.136 391.024 209.23 390.286 209.23 389.182Z" stroke="#FC9046" stroke-width="1.33267"/>
<path d="M293.189 402.508C293.855 402.464 293.855 392.513 293.189 392.513C292.522 392.513 288.042 394.418 287.858 397.178C287.674 399.938 292.522 402.553 293.189 402.508Z" stroke="#FC9046" stroke-width="1.33267"/>
<path d="M271.866 364.527C271.2 365.193 262.677 357.197 263.203 356.531C263.73 355.865 271.323 355.361 271.866 355.865C272.408 356.369 272.532 363.861 271.866 364.527Z" stroke="#FC9046" stroke-width="1.33267"/>
<path d="M299.852 333.209C297.853 333.875 296.927 333.752 295.188 333.209C293.449 332.666 297.853 317.217 301.851 319.216C305.849 321.215 301.851 332.543 299.852 333.209Z" stroke="#FC9046" stroke-width="1.33267"/>
<path d="M311.846 335.208L307.182 339.872C306.515 340.539 316.51 346.536 317.177 345.203C317.843 343.87 312.512 334.542 311.846 335.208Z" stroke="#FC9046" stroke-width="1.33267"/>
<path d="M317.177 289.897C317.339 288.434 318.379 287.394 319.842 287.232C321.305 287.069 323.358 288.907 323.174 290.563C322.99 292.22 321.498 293.413 319.842 293.229C318.186 293.045 317.014 291.36 317.177 289.897Z" stroke="#FC9046" stroke-width="1.33267"/>
<path d="M322.507 280.568C322.524 278.728 323.999 277.253 325.839 277.237C327.679 277.22 329.449 279.789 329.171 281.235C328.892 282.68 327.951 283.622 326.506 283.9C325.06 284.179 322.491 282.408 322.507 280.568Z" stroke="#FC9046" stroke-width="1.33267"/>
<path d="M377.813 229.927C377.696 228.265 379.279 225.729 381.145 225.929C383.011 226.129 384.007 228.097 383.811 229.927C383.614 231.756 382.135 233.442 380.479 233.258C378.823 233.074 377.931 231.589 377.813 229.927Z" stroke="#FC9046" stroke-width="1.33267"/>
<path d="M400.469 105.322L409.798 93.3276C409.798 93.3276 422.458 96.6593 422.458 98.6583C422.458 100.657 400.469 105.322 400.469 105.322Z" stroke="#FC9046" stroke-width="1.33267"/>
<path d="M445.78 79.3345C444.022 76.3067 443.781 64.7112 445.78 64.6751C447.779 64.6389 451.491 71.5512 452.443 75.3365C453.396 79.1217 455.79 84.3051 452.443 85.3315C449.096 86.358 447.537 82.3623 445.78 79.3345Z" stroke="#FC9046" stroke-width="1.33267"/>
<path d="M462.438 75.3365C462.223 74.0038 465.77 71.9296 467.103 72.0048C468.435 72.08 469.102 72.271 469.102 74.6701C469.102 77.0692 468.435 77.224 467.103 77.3355C465.77 77.447 462.654 76.6691 462.438 75.3365Z" stroke="#FC9046" stroke-width="1.33267"/>
<path d="M355.824 529.779C355.876 528.857 357.823 527.114 358.49 526.447C359.156 525.781 363.243 529.779 363.154 531.112C363.065 532.444 359.156 534.863 357.823 534.443C356.491 534.024 355.773 530.701 355.824 529.779Z" stroke="#FC9046" stroke-width="1.33267"/>
<path d="M392.473 456.482C392.262 456.059 374.73 456.032 374.482 456.482C374.233 456.932 372.483 462.479 373.149 462.479C373.815 462.479 391.807 461.812 391.807 461.812C391.807 461.812 392.684 456.904 392.473 456.482Z" stroke="#FC9046" stroke-width="1.33267"/>
<path d="M452.443 455.815C452.443 453.816 405.8 454.483 405.8 454.483L409.131 461.812C409.131 461.812 452.443 457.814 452.443 455.815Z" stroke="#FC9046" stroke-width="1.33267"/>
<path d="M415.128 393.18C417.337 392.446 419.793 390.466 420.459 390.514C421.125 390.563 423.791 397.844 425.123 399.177C426.456 400.509 393.139 391.847 392.473 391.181C391.807 390.514 390.474 386.516 391.807 385.85C393.139 385.184 412.919 393.913 415.128 393.18Z" stroke="#FC9046" stroke-width="1.33267"/>
<path d="M403.134 421.832C405.504 425.451 409.524 426.4 413.129 424.497C416.735 422.594 418.173 418.293 416.461 414.502C414.749 410.712 410.523 408.782 406.466 410.504C402.409 412.226 400.765 418.213 403.134 421.832Z" stroke="#FC9046" stroke-width="1.33267"/>
<path d="M433.119 464.478C433.37 463.244 433.843 462.661 435.118 462.479C436.394 462.297 437.873 463.716 437.784 465.144C437.695 466.572 436.51 467.666 435.118 467.497C433.727 467.328 432.869 465.712 433.119 464.478Z" stroke="#FC9046" stroke-width="1.33267"/>
<path d="M455.775 425.83C458.116 429.741 466.311 430.436 469.768 425.83C473.225 421.224 467.698 411.399 463.105 411.837C458.511 412.275 458.223 413.588 456.441 416.501C454.66 419.414 453.434 421.919 455.775 425.83Z" stroke="#FC9046" stroke-width="1.33267"/>
<path d="M481.096 409.838C480.429 409.838 476.292 411.171 475.765 412.503C475.239 413.836 481.096 417.834 482.428 417.834C483.761 417.834 492.174 415.835 492.423 413.836C492.673 411.837 481.762 409.838 481.096 409.838Z" stroke="#FC9046" stroke-width="1.33267"/>
<path d="M491.091 424.497C489.758 423.471 482.798 419.085 480.429 422.498C478.06 425.911 482.007 429.138 485.094 431.827C488.181 434.516 492.423 434.985 495.089 435.159C497.754 435.333 510.415 431.161 511.081 429.162C511.747 427.163 511.94 427.891 509.748 424.497C507.556 421.104 495.089 428.495 494.423 428.495C493.756 428.495 492.423 425.524 491.091 424.497Z" stroke="#FC9046" stroke-width="1.33267"/>
<path d="M536.402 421.166C534.856 419.833 520.41 419.438 517.744 422.498C515.079 425.558 539.776 437.158 540.4 435.159C541.024 433.16 537.947 422.498 536.402 421.166Z" stroke="#FC9046" stroke-width="1.33267"/>
<path d="M541.732 403.175C540.548 401.842 537.444 401.252 535.735 403.175C534.026 405.097 537.386 409.753 538.401 409.838C539.416 409.923 542.917 404.507 541.732 403.175Z" stroke="#FC9046" stroke-width="1.33267"/>
<path d="M555.726 406.506C556.392 405.174 560.76 395.845 561.056 395.179C561.352 394.512 551.57 395.179 551.061 395.845C550.553 396.511 555.059 407.839 555.726 406.506Z" stroke="#FC9046" stroke-width="1.33267"/>
<path d="M563.722 337.207C562.802 335.919 563.314 334.191 564.388 333.209C565.461 332.227 566.165 331.843 567.72 332.543C569.274 333.242 569.288 336.926 567.72 337.874C566.151 338.821 564.642 338.495 563.722 337.207Z" stroke="#FC9046" stroke-width="1.33267"/>
<path d="M599.037 327.878C604.454 324.551 611.52 319.178 613.031 323.88C614.541 328.583 610.258 328.09 607.7 333.209C605.142 338.328 606.13 349.45 601.036 350.534C595.943 351.618 595.932 350.898 593.04 349.201C590.149 347.504 588.876 347.026 587.71 341.872C586.544 336.717 593.621 331.206 599.037 327.878Z" stroke="#FC9046" stroke-width="1.33267"/>
<path d="M602.369 315.884C604.844 317.522 611.36 319.55 612.364 315.884C613.369 312.219 608.11 310.111 605.035 309.887C601.959 309.664 599.343 309.657 599.037 311.886C598.732 314.116 599.894 314.247 602.369 315.884Z" stroke="#FC9046" stroke-width="1.33267"/>
<path d="M584.378 415.169C588.04 412.799 592.055 414.614 593.707 417.168C595.359 419.721 595.644 419.714 594.373 423.165C593.102 426.616 580.716 417.538 584.378 415.169Z" stroke="#FC9046" stroke-width="1.33267"/>
<path d="M550.395 629.063C551.728 627.064 553.06 619.734 553.06 618.402C553.06 617.069 547.235 614.43 547.063 611.738C546.891 609.046 548.396 608.968 548.396 607.074C548.396 605.179 548.607 603.662 547.063 602.41C545.519 601.157 545.289 601.113 541.732 602.41C538.176 603.706 538.89 610.705 540.4 616.403C541.91 622.1 549.062 631.062 550.395 629.063Z" stroke="#FC9046" stroke-width="1.33267"/>
<path d="M532.404 645.721C537.633 645.822 538.004 645.49 540.4 641.057C542.796 636.624 536.046 626.275 529.738 628.397C523.431 630.518 527.174 645.621 532.404 645.721Z" stroke="#FC9046" stroke-width="1.33267"/>
<path d="M522.409 674.374C522.567 672.61 524.558 671.387 526.407 671.709C528.255 672.03 529.988 674.74 529.072 676.373C528.156 678.006 526.664 678.168 525.074 677.706C523.484 677.244 522.251 676.138 522.409 674.374Z" stroke="#FC9046" stroke-width="1.33267"/>
<path d="M505.75 673.041C507.905 673.774 508.894 675.425 508.416 677.706C507.937 679.986 504.284 681.449 502.419 680.371C500.553 679.294 500.164 678.458 500.42 676.373C500.675 674.288 503.595 672.308 505.75 673.041Z" stroke="#FC9046" stroke-width="1.33267"/>
<path d="M477.098 524.448C476.431 521.783 465.395 518.601 465.395 519.934C465.395 521.266 465.953 534.325 466.436 535.776C466.92 537.226 477.764 527.113 477.098 524.448Z" stroke="#FC9046" stroke-width="1.33267"/>
<path d="M515.079 484.468C516.412 484.235 527.873 489.799 527.739 490.465C527.606 491.131 515.745 492.464 514.413 492.464C513.08 492.464 507.957 491.798 508.416 487.8C508.874 483.802 513.746 484.701 515.079 484.468Z" stroke="#FC9046" stroke-width="1.33267"/>
<path d="M92.6126 319.274C73.9534 323.358 57.6816 316.093 47.7579 299.773C43.2136 292.299 41.4766 286.989 41.5857 278.243C41.76 264.269 52.4785 259.313 58.4214 246.665C66.6322 229.19 60.5154 211.72 76.2698 200.558C104.78 180.359 132.169 241.111 125.333 275.376C121.15 296.345 113.5 314.703 92.6126 319.274Z" fill="url(#paint0_linear_106_2677)" stroke="black" stroke-width="3.99802"/>
<path d="M113.529 219.129C112.173 208.847 60.1298 226.121 63.2918 233.531C66.4538 240.941 64.6549 247.316 74.3547 245.029C84.0545 242.743 84.4209 227.465 87.2141 226.673C90.0074 225.881 92.5647 237.811 103.46 236.686C114.356 235.56 114.884 229.412 113.529 219.129Z" fill="black" stroke="#060606" stroke-width="1.65906"/>
<path d="M79.3603 250.266C79.3603 250.266 85.5115 256.148 90.4457 255.071C96.8395 253.674 101.349 247.199 101.349 247.199" stroke="black" stroke-width="2.4886"/>
<path d="M50.8425 257.667C44.113 256.434 34.4102 248.219 35.6299 244.589" stroke="black" stroke-width="5.3307"/>
<path d="M50.7468 305.101C50.7468 305.101 46.2845 308.193 44.097 310.832C41.9096 313.472 38.1829 330.365 38.1829 330.365" stroke="black" stroke-width="5.3307"/>
<path d="M125.272 257.186C131.127 257.964 141.293 253.878 141.264 250.619" stroke="black" stroke-width="5.3307"/>
<path d="M75.1764 319.918C75.1764 319.918 69.2989 331.246 68.4337 333.708C66.0217 340.574 68.3546 345.312 68.3546 345.312" stroke="black" stroke-width="5.3307"/>
<path d="M60.0027 350.1C58.5601 345.695 69.4234 342.326 69.7109 342.942C69.9984 343.558 71.7773 349.697 71.9033 350.432C72.0292 351.168 61.4453 354.506 60.0027 350.1Z" fill="black" stroke="black" stroke-width="1.33267"/>
<path d="M28.2886 330.956C29.394 326.454 40.3952 329.341 40.3136 330.015C40.2319 330.69 38.495 336.841 38.2131 337.532C37.9313 338.222 27.1832 335.458 28.2886 330.956Z" fill="black" stroke="black" stroke-width="1.33267"/>
<path d="M41.3131 241.29C42.6456 242.623 38.6476 245.954 35.3161 245.954C31.9847 245.954 31.3179 243.289 31.3179 239.957C31.3179 236.625 33.3169 235.959 34.6496 236.626C35.9823 237.292 35.6917 240.624 35.6917 240.624L37.3151 240.624C37.9817 240.624 39.9807 239.957 41.3131 241.29Z" fill="black" stroke="black" stroke-width="0.666337"/>
<path d="M134.839 248.733C133.628 250.033 137.263 253.284 140.293 253.284C143.323 253.284 143.929 250.684 143.929 247.433C143.929 244.182 142.111 243.532 140.899 244.182C139.687 244.832 139.951 248.083 139.951 248.083L138.475 248.083C137.869 248.083 136.051 247.433 134.839 248.733Z" fill="black" stroke="black" stroke-width="0.666337"/>
<defs>
<linearGradient id="paint0_linear_106_2677" x1="58.1853" y1="204.344" x2="79.1185" y2="320.461" gradientUnits="userSpaceOnUse">
<stop offset="0.291539" stop-color="#E79E00"/>
<stop offset="0.671034" stop-color="#E26B10"/>
</linearGradient>
</defs>
</svg>
