<svg width="940" height="1026" viewBox="0 0 940 1026" fill="none" xmlns="http://www.w3.org/2000/svg">
<path d="M342.514 271.866C330.148 293.143 307.798 350.172 300.519 354.176C293.24 358.179 289.88 317.999 261.884 308.261C233.887 298.523 220.449 313.301 201.411 310.501C182.374 307.701 175.095 242.19 166.136 230.991C157.177 219.792 137.579 214.193 119.101 214.193C100.624 214.193 31.0083 231.532 29.5125 250.029C28.0166 268.525 52.2252 278.025 48.5501 289.784C44.875 301.542 -0.184631 303.573 4.31557 314.981C8.81576 326.388 22.7867 322.645 29.5125 332.898C36.2383 343.152 35.1118 350.256 35.1118 363.135C35.1118 376.013 11.1998 446.806 15.5142 457.763C19.8286 468.72 21.6734 480.16 32.872 481.84C44.0706 483.52 56.949 455.523 65.9079 457.763C74.8669 460.003 72.9479 480.375 78.2264 485.76C83.505 491.144 86.1215 488.5 91.1048 494.159C96.0882 499.817 79.3463 520.475 97.824 528.874C116.302 537.273 156.617 479.6 162.776 485.76C168.935 491.919 163.41 522.994 160.536 545.112C157.662 567.23 145.418 592.707 143.738 614.544C142.059 636.381 136.628 655.376 143.738 679.496C150.849 703.616 162.776 731.57 193.572 747.248C224.368 762.926 279.242 688.455 291.56 688.455C303.879 688.455 301.072 696.335 304.999 700.213C308.925 704.091 328.516 710.852 341.394 708.612C354.272 706.373 377.23 688.455 387.868 688.455C398.507 688.455 446.661 756.766 458.42 747.248C470.178 737.729 469.89 735.219 472.418 725.41C474.946 715.601 460.954 697.439 460.659 682.856C460.365 668.272 463.069 653.942 469.058 646.46C475.048 638.978 480.257 634.562 486.976 632.462C493.695 630.361 506.574 708.052 518.892 704.133C531.211 700.213 521.95 688.163 527.291 686.775C532.633 685.388 536.81 694.054 538.49 699.654C540.17 705.253 534.787 721.112 538.49 725.41C542.192 729.708 542.969 729.89 548.009 729.89C553.048 729.89 515.533 894.51 517.213 910.188C518.892 925.866 578.738 1025.93 583.844 1022.17C588.951 1018.41 591.132 1015.47 595.603 1010.98C600.074 1006.48 648.236 678.936 657.195 680.616C666.154 682.296 677.353 697.414 687.432 695.174C697.51 692.934 730.318 647.238 751.264 646.46C772.209 645.682 786.539 667.737 797.738 667.737C808.937 667.737 811.176 646.46 818.455 646.46C825.734 646.46 825.175 659.898 839.733 676.696C854.291 693.494 925.402 725.97 935.481 714.212C945.56 702.453 842.158 561.91 847.572 537.833C852.986 513.756 883.647 479.191 881.168 466.722C878.689 454.253 873.298 440.314 866.609 437.605C859.921 434.897 848.692 435.926 839.733 440.405C830.774 444.885 812.856 471.201 805.577 476.801C798.298 482.4 787.659 451.604 767.502 442.085C747.344 432.566 729.426 449.364 721.027 446.004C712.628 442.645 734.936 401.21 738.385 377.693C741.834 354.176 740.065 290.904 735.026 280.265C729.986 269.626 721.587 260.489 714.308 259.547C707.029 258.605 693.831 271.306 687.432 280.265C681.032 289.224 588.79 443.765 582.724 452.164C576.659 460.563 573.206 426.617 549.129 423.607C525.052 420.598 502.094 471.201 495.935 485.76C489.776 500.318 471.551 462.802 468.498 452.164C465.446 441.525 483.788 390.062 480.257 377.133C476.726 364.203 469.403 359.171 464.019 346.897C458.635 334.623 577.125 84.289 578.805 62.4517C580.485 40.6144 574.325 6.26368 569.286 4.21871C564.247 2.17373 539.05 14.8576 523.932 26.0561C508.813 37.2547 354.88 250.589 342.514 271.866Z" stroke="#FE5319" stroke-width="7.45828"/>
</svg>
