<svg width="840" height="917" viewBox="0 0 840 917" fill="none" xmlns="http://www.w3.org/2000/svg">
<path d="M306.282 243.195C295.239 262.195 275.282 313.12 268.782 316.695C262.282 320.27 259.282 284.391 234.282 275.695C209.282 267 197.282 280.195 180.282 277.695C163.282 275.195 156.782 216.696 148.782 206.695C140.782 196.695 123.282 191.695 106.782 191.695C90.2818 191.695 28.1175 207.178 26.7818 223.695C25.4461 240.212 47.0635 248.695 43.7818 259.195C40.5001 269.695 0.263263 271.509 4.28179 281.695C8.30032 291.882 20.7759 288.539 26.7818 297.695C32.7877 306.852 31.7818 313.195 31.7818 324.695C31.7818 336.195 10.4292 399.411 14.2818 409.195C18.1344 418.979 19.7818 429.195 29.7817 430.695C39.7817 432.195 51.2817 407.195 59.2817 409.195C67.2818 411.195 65.5682 429.388 70.2817 434.195C74.9953 439.003 77.3318 436.643 81.7817 441.695C86.2317 446.748 71.2817 465.195 87.7817 472.695C104.282 480.195 140.282 428.695 145.782 434.195C151.282 439.695 146.348 467.445 143.782 487.195C141.215 506.946 130.282 529.696 128.782 549.196C127.282 568.696 122.432 585.657 128.782 607.196C135.131 628.734 145.782 653.696 173.282 667.696C200.782 681.696 249.782 615.196 260.782 615.196C271.782 615.196 269.275 622.233 272.782 625.696C276.288 629.159 293.782 635.196 305.282 633.196C316.782 631.196 337.282 615.196 346.782 615.196C356.282 615.196 399.282 676.196 409.782 667.696C420.282 659.196 420.024 656.955 422.282 648.196C424.539 639.436 412.045 623.219 411.782 610.196C411.519 597.173 413.933 584.377 419.282 577.696C424.63 571.014 429.282 567.071 435.282 565.196C441.282 563.32 452.782 632.696 463.782 629.196C474.782 625.696 466.512 614.935 471.282 613.696C476.052 612.457 479.782 620.196 481.282 625.196C482.782 630.196 477.976 644.358 481.282 648.196C484.588 652.033 485.282 652.196 489.782 652.196C494.282 652.196 460.782 799.196 462.282 813.196C463.782 827.196 517.222 916.553 521.782 913.196C526.342 909.838 528.289 907.211 532.282 903.196C536.274 899.18 579.282 606.696 587.282 608.196C595.282 609.696 605.282 623.196 614.282 621.196C623.282 619.196 652.578 578.39 671.282 577.696C689.985 577.001 702.782 596.696 712.782 596.696C722.782 596.696 724.782 577.696 731.282 577.696C737.782 577.696 737.282 589.696 750.282 604.696C763.282 619.696 826.782 648.696 835.782 638.196C844.782 627.696 752.447 502.195 757.282 480.695C762.117 459.195 789.495 428.33 787.282 417.195C785.068 406.061 780.254 393.614 774.282 391.195C768.309 388.777 758.282 389.695 750.282 393.695C742.282 397.695 726.282 421.195 719.782 426.195C713.282 431.195 703.782 403.695 685.782 395.195C667.782 386.695 651.782 401.695 644.282 398.695C636.782 395.695 656.702 358.695 659.782 337.695C662.862 316.695 661.282 260.195 656.782 250.695C652.282 241.195 644.782 233.037 638.282 232.195C631.782 231.354 619.996 242.695 614.282 250.695C608.567 258.695 526.198 396.695 520.782 404.195C515.365 411.695 512.282 381.383 490.782 378.695C469.282 376.008 448.782 421.195 443.282 434.195C437.782 447.195 421.508 413.695 418.782 404.195C416.056 394.695 432.435 348.741 429.282 337.195C426.128 325.65 419.59 321.156 414.782 310.195C409.974 299.235 515.782 75.6954 517.282 56.1954C518.782 36.6954 513.282 6.02139 508.782 4.1953C504.282 2.3692 481.782 13.6955 468.282 23.6954C454.782 33.6953 317.324 224.195 306.282 243.195Z" stroke="#FE5319" stroke-width="6.66"/>
</svg>
