<svg width="892" height="982" viewBox="0 0 892 982" fill="none" xmlns="http://www.w3.org/2000/svg">
<path d="M631.444 338.365C638.1 332.852 644.771 329.809 651.08 331.21C654.235 331.912 656.62 333.529 658.333 335.905C660.036 338.265 661.052 341.339 661.559 344.93C662.571 352.102 661.575 361.537 659.671 372.022C657.766 382.52 654.936 394.154 652.242 405.733C649.545 417.325 646.983 428.867 645.599 439.229C642.814 460.085 635.189 487.853 625.833 519.246C619.788 539.531 613.02 561.337 606.352 583.801C607.162 582.531 608.014 581.249 608.879 580.001C610.53 577.62 612.251 575.332 613.856 573.459C615.431 571.621 616.989 570.067 618.316 569.269C620.786 567.784 624.147 566.917 626.779 566.417C628.115 566.164 629.305 565.998 630.162 565.895C630.34 565.874 630.506 565.857 630.655 565.84C630.827 565.314 631.081 564.573 631.417 563.689H631.418C632.101 561.899 633.128 559.5 634.504 557.09C635.855 554.726 637.178 552.842 638.841 551.58C640.563 550.273 642.538 549.713 645.013 549.755C647.678 549.801 649.722 550.964 651.373 552.614C652.984 554.224 654.274 556.352 655.471 558.416C656.253 559.764 656.445 561.361 656.393 562.97C656.341 564.586 656.036 566.374 655.69 568.191C654.983 571.906 654.096 575.834 654.316 579.663C654.553 583.782 654.617 588.154 655.086 591.999C655.093 592.053 655.1 592.107 655.107 592.161C655.128 592.037 655.151 591.912 655.173 591.785C655.712 588.694 656.441 584.47 657.205 579.934C658.735 570.844 660.392 560.557 660.938 555.605C661.195 553.276 660.939 549.334 660.376 544.489C659.819 539.685 658.977 534.124 658.118 528.625C657.261 523.137 656.384 517.702 655.764 513.19C655.153 508.739 654.762 504.999 654.94 502.993V502.992C655.263 499.367 655.175 496.404 655.309 493.291C655.441 490.238 655.79 487.24 657.019 483.982C659.389 477.701 661.508 473.893 666.731 469.445C671.838 465.096 678.93 460.804 687.735 461.805C696.546 462.807 703.724 468.801 708.09 477.172C712.543 485.709 710.33 492.448 709.569 501.226C709.162 505.919 707.257 513.37 705.343 519.967C703.419 526.6 701.442 532.516 700.833 534.211C700.221 535.919 697.199 543.136 694.364 549.933C692.939 553.349 691.553 556.676 690.524 559.191C690.009 560.449 689.586 561.498 689.292 562.25C689.188 562.517 689.105 562.743 689.038 562.923C689.102 563 689.18 563.091 689.275 563.195C689.696 563.654 690.332 564.277 691.157 565.042C692.801 566.567 695.115 568.581 697.778 570.85C700.496 573.166 705.204 577.846 709.192 581.902C711.194 583.939 713.03 585.833 714.365 587.217C715.032 587.91 715.574 588.475 715.95 588.868C716.137 589.063 716.285 589.218 716.384 589.322C716.409 589.348 716.432 589.373 716.453 589.394L716.458 589.397L716.542 589.486L716.592 589.541L716.635 589.587L716.668 589.641L716.708 589.704L716.714 589.713L719.46 594.292C719.543 594.195 719.626 594.096 719.706 593.993C721.871 591.164 724.438 585.531 726.26 579.544C728.071 573.594 728.795 568.784 728.897 561.738C728.999 554.725 726.918 545.253 726.245 541.888C725.9 540.163 725.652 537.264 725.782 534.461C725.847 533.058 726.007 531.657 726.306 530.428C726.602 529.213 727.049 528.096 727.732 527.323C728.937 525.959 730.141 525.023 731.512 524.368C732.876 523.716 734.372 523.357 736.132 523.106C739.832 522.577 744.532 524.299 748.609 527.222C749.74 528.033 750.619 529.297 751.36 530.787C752.103 532.282 752.737 534.066 753.347 535.976C754.578 539.831 755.719 544.204 757.491 548.147C758.364 550.091 762.028 556.202 767.084 564.42C772.125 572.613 778.507 582.833 784.782 592.958C791.054 603.078 797.218 613.102 801.815 620.887C804.113 624.779 806.023 628.119 807.36 630.635C808.028 631.892 808.559 632.953 808.923 633.78C809.106 634.192 809.251 634.557 809.352 634.864C809.447 635.153 809.524 635.452 809.524 635.71C809.524 637.962 809.677 639.984 809.409 641.672C809.126 643.449 808.374 644.945 806.583 646.245C804.708 647.606 802.294 647.558 800.033 646.903C797.758 646.243 795.5 644.935 793.782 643.561C793.508 643.342 793.116 642.897 792.652 642.326C792.172 641.735 791.571 640.952 790.869 640.011C789.463 638.128 787.637 635.587 785.534 632.619C781.327 626.684 775.992 619.014 770.665 611.44C765.334 603.86 760.008 596.371 755.809 590.779C753.708 587.981 751.897 585.669 750.511 584.059C749.817 583.252 749.242 582.636 748.798 582.227C748.576 582.022 748.401 581.883 748.273 581.799C748.235 581.775 748.205 581.76 748.185 581.75C748.142 581.766 748.06 581.804 747.936 581.901C747.74 582.054 747.501 582.302 747.222 582.654C746.666 583.356 746.023 584.386 745.313 585.661C743.896 588.206 742.274 591.625 740.627 595.119C738.987 598.6 737.324 602.153 735.84 604.928C735.099 606.315 734.392 607.526 733.746 608.445C733.423 608.904 733.106 609.304 732.798 609.62C732.499 609.927 732.169 610.196 731.814 610.34C728.536 611.675 725.935 613.267 722.343 612.59C721.191 613.193 719.889 613.274 718.737 613.186C717.851 613.118 716.961 612.947 716.171 612.784C715.347 612.613 714.665 612.458 714.059 612.376C712.512 612.167 710.523 611.426 708.625 610.437C706.831 609.503 705.001 608.287 703.58 606.939L703.301 606.668C702.607 605.974 700.568 603.724 697.933 600.843C695.276 597.938 691.969 594.341 688.686 590.893C685.398 587.44 682.156 584.158 679.625 581.873C678.353 580.723 677.303 579.866 676.542 579.365C676.329 579.225 676.161 579.129 676.035 579.064C675.876 579.152 675.691 579.227 675.478 579.262H675.477C675.055 579.332 674.688 579.231 674.4 579.067C674.047 580.996 673.571 583.933 672.911 588.29C672.081 593.763 671.583 598.093 671.156 601.632C670.731 605.149 670.368 607.944 669.805 610.261C669.234 612.609 668.444 614.525 667.132 616.286C665.832 618.031 664.073 619.547 661.681 621.176C659.182 622.878 656.895 623.611 654.812 623.62C652.726 623.628 650.98 622.908 649.568 621.944C648.26 621.051 647.222 619.934 646.427 618.958C645.349 618.055 644.312 617.119 643.375 616.294C642.551 615.569 641.802 614.931 641.13 614.434C640.44 613.924 639.926 613.635 639.568 613.522V613.523C639.452 613.486 639.382 613.478 639.347 613.476C639.285 613.552 639.104 613.833 638.975 614.609C638.601 616.854 637.377 619.613 635.634 622.375C633.878 625.161 631.533 628.05 628.82 630.553C623.468 635.491 616.306 639.249 609.27 637.011C602.395 634.824 599.107 629.736 597.587 624.458C596.975 622.332 596.645 620.154 596.471 618.092C596.181 619.137 595.894 620.183 595.606 621.228C594.676 624.608 593.684 628.369 592.635 632.462C592.62 632.471 592.606 632.48 592.593 632.489L592.493 632.574C592.485 632.578 592.427 632.62 592.254 632.703C592.074 632.789 591.855 632.882 591.57 633.008C591.019 633.252 590.307 633.585 589.588 634.079C588.129 635.082 586.667 636.738 586.306 639.625C585.957 642.415 586.477 644.708 587.197 646.239C587.554 646.997 587.976 647.6 588.394 647.979C588.491 648.067 588.598 648.151 588.712 648.224C578.972 688.275 565.949 747.484 553.792 798.264C546.127 830.276 538.805 858.942 532.869 877.305C529.91 886.459 527.269 893.142 525.069 896.38C524.516 897.194 523.96 897.838 523.397 898.247C522.828 898.659 522.167 898.886 521.485 898.671C520.835 898.467 520.351 897.915 519.981 897.226C519.604 896.525 519.286 895.577 519.017 894.398C510.581 857.453 510.889 832.163 513.005 797.589C513.263 793.386 513.583 789.414 513.958 785.619C514.413 785.576 515.09 785.452 515.834 785.287C516.788 785.075 517.929 784.779 519.03 784.441C520.125 784.104 521.204 783.717 522.02 783.32C522.425 783.123 522.796 782.909 523.077 782.678C523.321 782.477 523.665 782.127 523.666 781.638C523.665 781.444 523.614 781.255 523.558 781.101C523.499 780.939 523.418 780.768 523.326 780.596C523.14 780.251 522.883 779.856 522.583 779.438C521.981 778.6 521.171 777.621 520.327 776.692C519.482 775.763 518.588 774.867 517.811 774.199C517.424 773.866 517.053 773.577 516.723 773.368C516.559 773.263 516.391 773.171 516.229 773.103C516.113 773.054 515.973 773.007 515.823 772.987L515.668 772.976C515.605 772.976 515.544 772.984 515.487 772.996C518.498 752.005 523.276 735.164 528.342 710.208C529.95 702.287 534.677 684.743 541.003 662.367C541.077 662.362 541.144 662.349 541.201 662.33C541.383 662.269 541.552 662.161 541.69 662.058C541.837 661.949 541.992 661.814 542.151 661.663C542.469 661.36 542.834 660.96 543.223 660.5C544.004 659.579 544.914 658.373 545.793 657.103C546.673 655.833 547.529 654.487 548.198 653.285C548.851 652.109 549.372 650.989 549.511 650.201C549.647 649.431 549.593 648.299 549.461 647.092C549.327 645.863 549.102 644.48 548.862 643.169C548.621 641.857 548.362 640.61 548.156 639.65L547.871 638.329C553.725 618.025 560.296 595.611 566.78 573.629C575.377 544.482 583.827 516.075 590.261 494.326C596.703 472.55 601.11 457.494 601.641 454.995C602.721 449.914 604.563 443.376 605.869 438.177C606.525 435.562 607.044 433.293 607.277 431.686C607.385 430.938 607.423 430.377 607.4 430.005C607.329 430.071 607.248 430.153 607.158 430.252C606.808 430.639 606.383 431.224 605.892 431.988C604.913 433.511 603.729 435.656 602.434 438.126C599.863 443.029 596.833 449.252 594.217 454.116C591.608 458.968 584.122 474.936 577.193 489.969C573.731 497.48 570.414 504.748 567.919 510.263C567.427 511.351 566.967 512.37 566.544 513.31L566.074 513.142H566.072C566.07 513.141 566.066 513.14 566.062 513.138C566.054 513.135 566.041 513.131 566.026 513.125C565.994 513.114 565.946 513.097 565.885 513.076C565.762 513.032 565.582 512.968 565.353 512.888C564.894 512.727 564.238 512.499 563.449 512.23C561.871 511.691 559.758 510.986 557.624 510.322C555.493 509.659 553.324 509.033 551.639 508.656C550.801 508.468 550.055 508.336 549.484 508.297C549.202 508.278 548.924 508.278 548.684 508.323C548.485 508.36 548.096 508.467 547.906 508.847L547.849 508.991C547.752 509.321 547.876 509.634 547.95 509.791C548.055 510.015 548.219 510.252 548.406 510.484C548.784 510.955 549.345 511.524 550.013 512.139C551.356 513.375 553.205 514.865 555.088 516.244C556.969 517.621 558.909 518.906 560.434 519.725C561.188 520.13 561.883 520.445 562.436 520.585C562.705 520.654 563.011 520.7 563.297 520.648C563.335 520.641 563.372 520.631 563.409 520.621C562.743 522.757 560.698 529.111 556.715 535.528C552.173 542.845 545.031 550.376 534.412 551.747C523.647 553.136 516.944 545.457 512.509 537.758C510.284 533.895 508.578 529.938 507.205 527.005C506.511 525.524 505.912 524.325 505.373 523.5C505.103 523.088 504.868 522.802 504.668 522.625C504.489 522.466 504.388 522.438 504.352 522.434C504.384 522.432 504.285 522.429 504.054 522.701C503.827 522.968 503.563 523.395 503.269 523.99C502.684 525.174 502.042 526.898 501.363 529.019C500.007 533.253 498.534 538.959 497.076 544.833C495.62 550.695 494.18 556.726 492.898 561.574C492.257 563.998 491.651 566.139 491.1 567.825C490.559 569.478 490.043 570.784 489.558 571.463C486.122 576.274 479.938 580.405 472.357 580.405C468.531 580.405 465.741 579.236 463.163 577.544C461.885 576.706 460.655 575.736 459.387 574.728C458.114 573.716 456.797 572.661 455.316 571.622C454.481 571.036 453.43 569.907 452.249 568.43C451.054 566.937 449.684 565.035 448.21 562.851C445.262 558.482 441.88 552.955 438.626 547.253C435.373 541.551 432.242 535.664 429.797 530.573C427.365 525.505 425.578 521.158 425.06 518.566C424.059 513.561 423.675 509.814 424.362 506.688C425.059 503.515 426.84 501.06 429.964 498.588C433.095 496.112 436.421 494.69 440.29 494.975C444.133 495.258 448.402 497.218 453.45 501.256C458.542 505.33 462.667 511.58 465.765 516.129C467.339 518.44 468.616 520.264 469.633 521.237C470.159 521.74 470.49 521.888 470.657 521.899C470.703 521.902 470.862 521.919 471.099 521.461C472.195 519.339 472.098 517.475 471.749 515.424C471.402 513.392 470.775 511.083 471.027 508.378C471.274 505.722 473.827 491.611 479.309 478.342C482.051 471.707 485.544 465.233 489.885 460.505C494.232 455.772 499.488 452.731 505.717 453.135C511.962 453.541 516.975 457.583 520.957 463.144C524.942 468.711 527.971 475.899 530.238 482.826C532.508 489.76 534.027 496.473 534.978 501.111C535.205 502.216 535.399 503.204 535.564 504.048C535.683 503.586 535.82 503.081 535.973 502.538C536.599 500.321 537.511 497.425 538.665 494.025C540.827 487.65 543.843 479.485 547.406 470.66L548.214 470.71H548.217C548.219 470.711 548.221 470.711 548.224 470.711C548.23 470.712 548.239 470.712 548.25 470.712C548.272 470.714 548.304 470.716 548.346 470.718C548.43 470.723 548.554 470.73 548.709 470.738C549.022 470.753 549.469 470.774 550.004 470.792C551.074 470.827 552.504 470.853 553.937 470.817C555.362 470.781 556.825 470.682 557.946 470.456C558.5 470.344 559.021 470.191 559.42 469.969C559.803 469.757 560.25 469.375 560.25 468.757C560.25 468.335 560.069 467.895 559.857 467.506C559.634 467.098 559.327 466.654 558.975 466.202C558.27 465.296 557.34 464.294 556.424 463.37C555.506 462.442 554.59 461.58 553.904 460.95C553.561 460.635 553.274 460.377 553.074 460.198C552.974 460.108 552.894 460.038 552.84 459.991L552.762 459.922C552.76 459.921 552.758 459.919 552.757 459.918L552.755 459.917L552.123 459.364C559.205 442.983 567.655 425.963 575.766 414.762C580.081 408.803 585.001 401.069 590.324 392.694C590.327 392.704 590.329 392.714 590.333 392.724C590.415 392.971 590.57 393.199 590.815 393.35C591.051 393.496 591.309 393.531 591.532 393.521C591.953 393.502 592.408 393.315 592.829 393.091C593.696 392.63 594.761 391.821 595.807 390.942C597.914 389.172 600.099 386.988 600.765 386.322L600.774 386.312L600.775 386.311L600.774 386.31C601.258 385.819 601.452 385.142 601.51 384.479C601.569 383.802 601.497 383.049 601.367 382.311C601.172 381.204 600.833 380.056 600.536 379.132L600.259 378.293L600.218 378.187C600.169 378.078 600.096 377.964 599.986 377.866C599.956 377.839 599.923 377.816 599.89 377.794C603.61 372.111 607.44 366.444 611.325 361.12C614.827 356.319 618.38 351.788 621.935 347.764C622.331 348.084 622.901 348.242 623.431 348.322C624.058 348.417 624.79 348.428 625.521 348.367C626.253 348.305 627.007 348.168 627.678 347.952C628.336 347.74 628.976 347.432 629.417 346.991C629.928 346.481 630.093 345.732 630.128 345.043C630.165 344.332 630.068 343.543 629.921 342.808C629.774 342.068 629.571 341.353 629.377 340.779C629.322 340.614 629.263 340.457 629.208 340.309C629.955 339.63 630.7 338.981 631.444 338.365ZM531.405 801.264C530.888 801.005 530.281 800.904 529.604 800.964C528.372 801.074 527.285 801.433 526.546 802.133C525.776 802.864 525.475 803.881 525.673 805.07C525.714 805.312 525.746 805.533 525.774 805.737C525.802 805.937 525.827 806.132 525.855 806.305C525.908 806.639 525.98 806.996 526.149 807.303C526.55 808.03 527.318 808.202 528.269 808.289C529.213 808.374 530.264 808.443 531.133 808.14C531.59 807.981 532.008 807.715 532.339 807.299C532.667 806.887 532.879 806.365 532.985 805.737C533.183 804.563 533.107 803.339 532.581 802.404C532.311 801.926 531.923 801.525 531.405 801.264ZM545.872 743.693C544.814 743.329 543.637 743.642 542.746 744.231C541.851 744.822 541.095 745.789 540.993 746.929C540.956 747.339 540.919 747.684 540.92 747.919C540.921 748.039 540.93 748.206 540.992 748.371C541.066 748.569 541.208 748.741 541.417 748.844C541.588 748.929 541.76 748.945 541.86 748.95H542.566C542.708 748.954 542.871 748.963 543.056 748.984C545.103 749.211 546.859 747.648 547.122 745.747C547.169 745.403 547.232 745.207 547.274 745.099C547.303 745.022 547.308 745.022 547.341 744.94C547.351 744.916 547.376 744.855 547.392 744.783C547.408 744.713 547.437 744.541 547.355 744.346C547.265 744.133 547.1 744.028 547.001 743.982C546.914 743.941 546.832 743.925 546.801 743.918C546.753 743.909 546.633 743.891 546.596 743.885C546.462 743.863 546.234 743.818 545.872 743.693ZM514.941 75.3296C515.942 75.1717 516.867 75.3845 517.505 76.1636C518.097 76.887 518.334 77.978 518.334 79.3188C518.334 84.5816 516.775 92.1223 514.355 100.76C511.93 109.416 508.621 119.235 505.084 129.08C497.995 148.814 490.028 168.558 486.315 179.484C478.892 201.328 474.247 213.424 465.646 234.824C457.039 256.239 437.567 297.181 418.987 336.808C409.688 356.64 384.858 405.134 359.952 454.639C335.033 504.168 310.043 554.699 300.394 578.655C290.752 602.594 282.887 624.349 272.089 640.085C266.679 647.97 260.511 654.379 252.981 658.815C245.445 663.254 236.58 665.696 225.812 665.696C214.927 665.696 206.994 661.047 201.258 653.75C195.545 646.48 192.019 636.599 189.844 626.101C185.495 605.109 186.499 581.362 186.499 570.41C186.499 548.378 191.469 497.254 193.832 475.053C195.017 463.911 198.362 449.521 200.557 438.016C201.659 432.239 202.469 427.205 202.594 423.625C202.657 421.825 202.544 420.466 202.25 419.58C202.104 419.142 201.929 418.868 201.755 418.708C201.597 418.563 201.412 418.485 201.158 418.485C200.826 418.485 200.251 418.574 199.42 418.773C198.605 418.968 197.59 419.257 196.4 419.628C194.02 420.37 190.971 421.432 187.476 422.708C180.488 425.258 171.749 428.653 163.085 432.029C154.426 435.403 145.84 438.76 139.169 441.228C135.835 442.462 132.971 443.478 130.811 444.164C129.732 444.506 128.818 444.77 128.104 444.937C127.748 445.021 127.43 445.083 127.162 445.118C126.907 445.151 126.641 445.169 126.413 445.128C124.434 444.781 121.63 444.629 118.701 444.295C115.847 443.97 112.894 443.471 110.887 442.393C109.072 441.417 107.016 440.488 105.393 439.45C103.754 438.401 102.344 437.12 101.893 435.303C101.654 434.342 101.836 433.401 102.151 432.557C102.464 431.718 102.935 430.909 103.338 430.211C103.762 429.479 104.09 428.898 104.227 428.417C104.292 428.188 104.298 428.032 104.278 427.927C104.261 427.838 104.219 427.75 104.105 427.653C103.529 427.159 102.914 427.274 101.858 427.611C100.919 427.91 99.571 428.422 98.2378 427.74C97.4725 427.348 97.0531 426.562 96.8188 425.721C96.5807 424.866 96.4968 423.824 96.5005 422.722C96.508 420.514 96.8702 417.904 97.2173 415.715C97.4098 414.501 98.0442 413.037 98.9233 411.506C99.8099 409.963 100.976 408.301 102.282 406.68C104.885 403.449 108.097 400.316 110.849 398.596C111.566 398.148 113.955 397.032 117.511 395.45C121.097 393.854 125.932 391.759 131.597 389.339C142.928 384.499 157.59 378.358 172.251 372.321C186.913 366.284 201.577 360.349 212.91 355.92C218.575 353.706 223.413 351.867 227.003 350.58C228.798 349.936 230.287 349.428 231.415 349.08C231.978 348.906 232.458 348.769 232.845 348.675C233.215 348.586 233.553 348.521 233.804 348.519C236.44 348.501 238.684 348.134 241 347.946C243.286 347.76 245.553 347.763 248.005 348.551C249.291 348.965 251.025 350.061 252.914 351.538C254.822 353.029 256.952 354.958 259.041 357.101C263.202 361.372 267.271 366.567 269.074 370.919C270.865 375.244 271.39 378.869 271.544 382.553C271.621 384.385 271.607 386.239 271.611 388.183C271.615 390.133 271.638 392.188 271.789 394.453C271.944 396.798 271.681 401.284 271.252 406.685C270.823 412.103 270.219 418.513 269.682 424.721C269.144 430.938 268.673 436.958 268.501 441.628C268.416 443.965 268.406 445.948 268.498 447.442C268.544 448.189 268.614 448.798 268.708 449.258C268.79 449.656 268.879 449.882 268.942 449.994C269.05 449.941 269.236 449.814 269.5 449.542C270.113 448.913 270.903 447.78 271.848 446.199C273.726 443.055 276.106 438.324 278.755 432.82C284.042 421.838 290.389 407.813 295.856 397.516C298.911 391.762 304.225 381.299 310.776 368.417C311.719 367.96 312.845 366.946 314.035 365.776C314.655 365.166 315.316 364.489 316.001 363.791C316.689 363.09 317.403 362.364 318.139 361.647C319.614 360.209 321.156 358.822 322.704 357.758C324.258 356.69 325.762 355.987 327.163 355.845C329.998 355.558 332.377 357.255 334.527 358.726C335.049 359.084 335.564 359.429 336.055 359.707C336.543 359.982 337.046 360.213 337.548 360.317C338.065 360.423 338.601 360.398 339.112 360.135C339.612 359.877 340.011 359.43 340.339 358.836C340.667 358.244 340.841 357.675 340.858 357.12C340.875 356.561 340.732 356.058 340.492 355.607C340.031 354.742 339.184 354.028 338.397 353.379C336.72 351.999 335.112 350.738 335.092 348.513C335.083 347.451 335.57 346.518 336.411 345.606C337.261 344.683 338.409 343.847 339.617 342.97C340.796 342.114 342.041 341.213 342.956 340.2C343.883 339.173 344.54 337.956 344.418 336.47C344.31 335.152 343.991 334.168 343.526 333.368C343.065 332.574 342.482 331.999 341.917 331.486C340.789 330.462 339.702 329.643 339.057 327.657C338.375 325.554 338.221 323.954 338.153 322.202C338.086 320.475 338.103 318.555 337.768 315.922C348.842 294.782 359.965 274.233 368.505 260.216C390.681 223.819 405.083 205.182 431.184 171.532C444.225 154.719 465.728 126.381 483.967 104.835C493.081 94.0701 501.41 84.9615 507.477 79.8354C508.996 78.5519 510.387 77.5072 511.623 76.7456C512.847 75.9907 513.968 75.4831 514.941 75.3296ZM534.993 578.406C536.171 578.406 537.099 579.01 537.792 579.944C538.47 580.858 538.953 582.121 539.301 583.57C539.999 586.474 540.202 590.352 540.144 594.324C540.028 602.272 538.858 610.816 538.307 613.205C537.769 615.536 535.101 627.211 532.066 638.138C530.549 643.598 528.936 648.892 527.446 652.745C526.703 654.665 525.978 656.262 525.296 657.347C524.958 657.885 524.604 658.342 524.23 658.645C523.859 658.946 523.349 659.186 522.788 658.999C522.314 658.841 521.979 658.45 521.737 658.042C521.487 657.621 521.278 657.081 521.099 656.464C520.739 655.227 520.464 653.557 520.254 651.607C519.834 647.699 519.667 642.549 519.667 637.209C519.667 631.412 519.865 625.356 520.153 620.384H520.396C520.436 620.384 520.494 620.384 520.568 620.383C520.716 620.382 520.927 620.379 521.18 620.374C521.685 620.363 522.362 620.342 523.041 620.299C523.713 620.257 524.413 620.194 524.955 620.092C525.219 620.043 525.487 619.977 525.703 619.882C525.809 619.836 525.943 619.765 526.06 619.655C526.182 619.54 526.331 619.337 526.331 619.051C526.33 618.858 526.258 618.686 526.219 618.6C526.169 618.49 526.103 618.372 526.033 618.256C525.89 618.022 525.695 617.741 525.472 617.438C525.024 616.83 524.431 616.09 523.846 615.379C523.26 614.667 522.674 613.976 522.235 613.464C522.015 613.208 521.832 612.996 521.704 612.848C521.64 612.774 521.589 612.717 521.554 612.677C521.537 612.658 521.524 612.642 521.515 612.631C521.511 612.626 521.507 612.622 521.504 612.62C521.504 612.619 521.503 612.617 521.502 612.617L521.501 612.616L520.87 611.893C520.916 611.544 520.962 611.227 521.008 610.947C521.676 606.939 523.182 598.905 525.446 591.862C526.576 588.345 527.908 585.035 529.441 582.591C530.943 580.196 532.783 578.406 534.993 578.406ZM396.75 386.676C400.21 380.644 404.932 375.984 411.104 376.551H411.105C417.316 377.123 420.729 382.567 422.83 389.083C424.958 395.683 425.97 404.078 426.963 411.69C427.98 419.486 427.857 431.352 427.132 444.895C426.406 458.466 425.071 473.816 423.637 488.62C420.767 518.248 415.819 549.533 412.278 564.102C410.499 571.419 407.651 579.386 405.359 586.072C404.207 589.432 403.199 592.461 402.516 594.957C402.17 596.22 401.92 597.31 401.773 598.212C401.624 599.124 401.588 599.807 401.645 600.274C402.246 605.187 403.276 607.789 404.917 612.671C405.276 613.741 406.491 616.104 408.221 619.208C409.924 622.263 412.053 625.91 414.158 629.479C416.257 633.039 418.34 636.533 419.93 639.247C420.726 640.605 421.407 641.779 421.911 642.68C422.162 643.13 422.374 643.521 422.536 643.835C422.683 644.122 422.83 644.423 422.909 644.658V644.659C423.289 645.8 423.569 647.995 423.362 650.268L423.314 650.723C423.024 653.13 422.11 655.961 419.707 657.525H419.706C417.191 659.16 414.532 658.482 412.243 657.302C410.005 656.149 407.608 654.234 405.568 652.844C400.927 649.683 397.155 643.722 394.5 639.078C393.785 637.825 393.046 636.104 392.309 634.295C391.557 632.449 390.804 630.502 390.018 628.663C389.232 626.823 388.455 625.192 387.697 624.015C387.317 623.426 386.974 623.002 386.677 622.73C386.449 622.521 386.301 622.45 386.231 622.427L386.187 622.417C385.708 622.366 384.89 622.537 383.752 623.014C382.663 623.471 381.454 624.133 380.271 624.848C379.87 625.091 379.476 625.337 379.093 625.582C377.73 626.987 376.188 628.288 374.594 629.324C372.653 630.585 370.54 631.521 368.53 631.708C366.318 631.912 364.122 630.785 362.239 629.473C360.318 628.135 358.413 626.376 356.798 624.956C355.974 624.23 355.225 623.592 354.553 623.095C353.863 622.585 353.348 622.297 352.99 622.184C352.873 622.147 352.804 622.14 352.769 622.138C352.706 622.216 352.526 622.498 352.397 623.27C352.022 625.515 350.798 628.275 349.056 631.038C347.299 633.823 344.954 636.711 342.242 639.214C336.89 644.152 329.728 647.911 322.693 645.673C315.817 643.486 312.53 638.397 311.01 633.119C309.508 627.902 309.688 622.367 309.77 619.02C309.943 611.969 311.908 608.041 314.541 601.872C315.918 598.643 319.013 593.406 322.301 588.663C323.952 586.282 325.673 583.993 327.278 582.121C328.853 580.282 330.411 578.729 331.738 577.931C334.207 576.446 337.569 575.578 340.201 575.079C341.537 574.825 342.727 574.66 343.583 574.557C343.763 574.536 343.928 574.518 344.078 574.501C344.25 573.976 344.504 573.234 344.84 572.351C345.522 570.561 346.551 568.161 347.927 565.751C349.278 563.387 350.6 561.504 352.263 560.242C353.985 558.935 355.96 558.374 358.435 558.417C361.1 558.462 363.143 559.626 364.794 561.276C366.406 562.886 367.697 565.013 368.894 567.077L369.034 567.333C369.699 568.625 369.864 570.123 369.815 571.632C369.763 573.248 369.459 575.036 369.113 576.853C368.406 580.568 367.518 584.496 367.739 588.325C367.976 592.444 368.04 596.815 368.509 600.66C368.742 602.566 369.069 604.271 369.542 605.677C369.822 606.513 370.144 607.207 370.502 607.766C371.039 607.299 371.529 606.814 371.957 606.273C374.646 602.872 376.149 601.046 377.774 597.247C377.886 596.984 377.985 596.49 378.001 595.687C378.017 594.909 377.955 593.945 377.824 592.81C377.561 590.539 377.04 587.714 376.42 584.546C375.19 578.257 373.579 570.664 373.006 563.899C371.868 550.435 372.56 516.035 375.674 485.69C378.793 455.304 385.692 422.909 389.027 408.236C390.705 400.854 393.239 392.797 396.75 386.676ZM497.649 572.409C498.934 572.353 500.163 572.811 501.264 573.502C502.366 574.195 503.38 575.146 504.254 576.146C505.991 578.133 507.271 580.422 507.639 581.527C507.714 581.751 507.742 582.072 507.756 582.391C507.772 582.738 507.773 583.174 507.762 583.683C507.741 584.702 507.673 586.044 507.568 587.603C507.357 590.723 506.995 594.738 506.559 598.83C506.124 602.922 505.613 607.099 505.105 610.542C504.601 613.954 504.088 616.727 503.633 617.952C502.773 620.266 501.594 622.963 500.371 625.174C499.76 626.279 499.129 627.281 498.511 628.056C497.916 628.803 497.253 629.447 496.556 629.679C496 629.864 495.508 629.637 495.161 629.34C494.821 629.051 494.527 628.627 494.269 628.165C493.747 627.229 493.261 625.926 492.834 624.584C491.985 621.911 491.297 618.836 491.039 617.896C490.952 617.58 490.853 616.805 490.747 615.778C490.637 614.718 490.511 613.315 490.378 611.683C490.113 608.419 489.817 604.229 489.56 600.019C489.303 595.81 489.084 591.576 488.97 588.225C488.914 586.551 488.882 585.091 488.887 583.963C488.89 583.4 488.902 582.914 488.923 582.522C488.944 582.144 488.977 581.809 489.036 581.576C489.389 580.16 490.319 577.961 491.737 576.078C493.146 574.207 495.141 572.517 497.649 572.409ZM343.754 594.398C343.09 594.066 342.28 594.23 341.391 594.762C340.504 595.293 339.538 596.188 338.562 597.312C336.609 599.561 334.61 602.728 333.092 605.726C331.575 608.724 330.576 612.056 330.123 614.721C329.896 616.054 329.805 617.22 329.855 618.094C329.88 618.53 329.94 618.895 330.036 619.171C330.132 619.449 330.262 619.635 330.427 619.718L330.491 619.744C330.558 619.764 330.637 619.771 330.732 619.76C330.863 619.746 331.002 619.701 331.137 619.644L331.375 619.53C331.622 619.399 331.901 619.216 332.203 618.99C333.007 618.386 333.98 617.469 334.991 616.386C337.012 614.221 339.178 611.389 340.422 609.057C341.667 606.725 343.167 603.393 344.022 600.478C344.449 599.021 344.715 597.668 344.708 596.595C344.701 595.52 344.418 594.73 343.754 594.398ZM628.865 588.572C628.2 588.24 627.39 588.405 626.501 588.937C625.614 589.468 624.649 590.363 623.673 591.487C621.721 593.736 619.721 596.901 618.204 599.9C616.686 602.898 615.687 606.23 615.234 608.895C615.007 610.227 614.917 611.394 614.966 612.268C614.991 612.704 615.052 613.07 615.147 613.346C615.243 613.623 615.373 613.81 615.539 613.893L615.602 613.918C615.669 613.939 615.748 613.945 615.842 613.934C615.973 613.919 616.113 613.875 616.249 613.818C616.55 613.69 616.911 613.466 617.313 613.165C618.118 612.561 619.091 611.644 620.102 610.561C622.123 608.395 624.289 605.563 625.534 603.231C626.778 600.899 628.278 597.567 629.133 594.652C629.56 593.195 629.826 591.841 629.819 590.769C629.812 589.693 629.529 588.904 628.865 588.572ZM405.045 425.816C405.007 425.818 404.97 425.828 404.929 425.851C404.881 425.878 404.835 425.917 404.794 425.96C404.703 426.057 404.607 426.203 404.508 426.391C404.31 426.769 404.098 427.328 403.874 428.046C403.424 429.485 402.923 431.569 402.391 434.147C401.327 439.303 400.133 446.441 398.949 454.364C396.58 470.21 394.247 489.201 393.062 501.777C391.877 514.352 390.878 529.367 390.507 541.309C390.322 547.28 390.295 552.485 390.48 556.232C390.573 558.104 390.718 559.613 390.924 560.672C391.027 561.201 391.146 561.619 391.28 561.914C391.338 562.042 391.408 562.166 391.493 562.26C391.573 562.35 391.65 562.396 391.731 562.414H391.73C391.777 562.424 391.815 562.418 391.855 562.403C391.902 562.385 391.95 562.353 391.991 562.315C392.08 562.232 392.174 562.101 392.27 561.923C392.463 561.568 392.669 561.029 392.884 560.331C393.315 558.932 393.784 556.893 394.277 554.403C395.262 549.422 396.336 542.636 397.357 535.562C399.399 521.414 401.231 506.109 401.724 501.777C402.218 497.445 403.718 478.455 404.76 460.547C405.282 451.594 405.688 442.91 405.798 436.465C405.853 433.243 405.835 430.58 405.719 428.723C405.661 427.795 405.579 427.068 405.469 426.573C405.415 426.326 405.353 426.136 405.285 426.008L405.244 425.941C405.228 425.918 405.209 425.895 405.189 425.875C405.156 425.843 405.128 425.829 405.104 425.822L405.045 425.816ZM682.252 485.118C680.795 484.925 679.461 485.923 678.493 487.138C678.009 487.745 677.616 488.406 677.344 488.999C677.073 489.589 676.923 490.115 676.922 490.449C676.922 490.784 676.796 492.951 676.64 496.02C676.484 499.091 676.297 503.068 676.172 507.024C676.047 510.98 675.985 514.917 676.079 517.905C676.125 519.398 676.211 520.656 676.347 521.56C676.415 522.012 676.497 522.377 676.592 522.638C676.638 522.764 676.69 522.871 676.747 522.951C676.802 523.028 676.86 523.078 676.922 523.099L676.969 523.109C677.017 523.114 677.068 523.103 677.123 523.076C677.193 523.04 677.268 522.976 677.348 522.886C677.507 522.707 677.682 522.425 677.868 522.056L678.01 521.761C678.348 521.036 678.722 520.047 679.119 518.873C680.024 516.186 681.046 512.521 682.003 508.773C682.961 505.025 683.856 501.193 684.512 498.174C684.84 496.665 685.108 495.357 685.294 494.366C685.387 493.871 685.46 493.454 685.509 493.129C685.558 492.806 685.584 492.574 685.584 492.449L685.58 492.042C685.553 491.019 685.422 489.522 685.012 488.179C684.543 486.642 683.71 485.311 682.252 485.118ZM481.078 509.775C478.744 509.572 477.045 511.727 477.022 513.763C477 515.783 478.213 517.534 480.28 517.764C482.343 517.993 483.915 516.573 484.337 514.575C484.56 513.521 484.311 512.386 483.748 511.493C483.182 510.595 482.255 509.877 481.078 509.775ZM785.38 455.061C785.507 455.072 785.739 455.106 785.938 455.266L786.021 455.343L786.076 455.407C786.194 455.56 786.248 455.73 786.276 455.85C786.311 456.001 786.326 456.166 786.332 456.331C786.342 456.661 786.313 457.074 786.254 457.544C786.137 458.492 785.89 459.763 785.537 461.262C784.829 464.265 783.68 468.243 782.222 472.507C779.315 481.008 775.139 490.77 770.727 496.2C766.326 501.616 761.222 505.035 756.411 506.496C751.607 507.954 747.032 507.471 743.814 504.968C740.516 502.403 740.055 498.238 740.817 493.752C741.582 489.25 743.613 484.184 745.61 479.525C746.158 478.247 747.194 476.906 748.535 475.554C749.883 474.195 751.575 472.788 753.479 471.38C757.287 468.566 761.988 465.717 766.588 463.21C771.191 460.703 775.711 458.527 779.166 457.06C780.89 456.328 782.363 455.766 783.454 455.428C783.995 455.261 784.466 455.141 784.836 455.087C785.019 455.061 785.207 455.046 785.38 455.061ZM447.127 499.118C446.235 498.995 445.381 499.097 444.654 499.516C443.921 499.938 443.392 500.637 443.075 501.559C442.711 502.616 443.024 503.793 443.613 504.685C444.204 505.58 445.171 506.336 446.311 506.438C448.433 506.628 450.14 505.202 450.365 503.182C450.592 501.135 449.029 499.38 447.127 499.118ZM407.924 490.136C407.466 489.935 406.916 489.904 406.298 489.989C405.583 490.088 405.024 490.417 404.63 490.907C404.249 491.382 404.054 491.971 403.97 492.555C403.805 493.715 404.054 495.039 404.437 496.022C404.604 496.449 404.734 496.806 404.843 497.047C404.94 497.261 405.106 497.6 405.458 497.765C405.809 497.93 406.171 497.837 406.355 497.79C406.629 497.719 406.808 497.656 407.209 497.561C407.654 497.456 408.039 497.296 408.338 497.03C408.651 496.752 408.81 496.413 408.892 496.065C408.969 495.739 408.986 495.375 408.998 495.029C409.009 494.664 409.015 494.282 409.053 493.837C409.093 493.371 409.13 492.89 409.122 492.447C409.114 492.008 409.063 491.549 408.894 491.143C408.716 490.714 408.407 490.348 407.924 490.136ZM237.099 435.144C236.515 435.18 236.025 435.236 235.625 435.348C235.211 435.464 234.854 435.652 234.579 435.971C234.314 436.278 234.175 436.648 234.078 437.023C233.982 437.394 233.907 437.852 233.819 438.36C233.384 440.855 235.076 443.158 237.649 443.786C238.862 444.082 239.989 444.078 240.882 443.511C241.786 442.938 242.271 441.905 242.464 440.569C242.684 439.047 241.956 437.642 240.927 436.669C239.901 435.7 238.472 435.059 237.099 435.144ZM127.468 420.024C126.715 420.024 125.716 420.2 124.862 420.76C123.977 421.341 123.293 422.311 123.198 423.772C123.021 426.49 124.497 427.966 125.877 427.934C126.229 427.926 126.652 427.778 127.024 427.613C127.423 427.436 127.861 427.197 128.273 426.931C128.684 426.666 129.087 426.362 129.409 426.052C129.702 425.77 130.032 425.382 130.121 424.941C130.191 424.589 130.154 424.118 130.076 423.671C129.994 423.202 129.851 422.672 129.657 422.171C129.465 421.676 129.207 421.172 128.879 420.78C128.559 420.397 128.087 420.024 127.468 420.024ZM177.244 404.162C176.688 403.375 175.748 402.992 174.419 403.164C173.248 403.315 172.41 403.618 171.898 404.357C171.657 404.705 171.522 405.104 171.427 405.518C171.333 405.929 171.269 406.409 171.198 406.929L171.179 407.066C171.018 408.246 171.16 409.172 171.743 409.783C172.314 410.381 173.137 410.488 173.838 410.488C174.327 410.488 174.816 410.309 175.245 410.071C175.682 409.828 176.105 409.496 176.475 409.126C176.845 408.757 177.177 408.334 177.419 407.897C177.658 407.468 177.836 406.978 177.836 406.49C177.836 405.795 177.747 404.875 177.244 404.162ZM597.087 399.838C595.89 399.61 594.688 400.05 593.809 400.785C592.931 401.519 592.288 402.621 592.298 403.831C592.303 404.304 592.318 404.703 592.389 405.002C592.427 405.16 592.491 405.339 592.615 405.5C592.749 405.673 592.923 405.785 593.111 405.845C593.281 405.899 593.447 405.906 593.576 405.904C593.706 405.902 593.847 405.889 593.977 405.876C594.248 405.851 594.558 405.819 594.957 405.824C595.957 405.835 596.855 405.567 597.564 405.003C598.273 404.439 598.737 403.621 598.947 402.63C599.028 402.246 599.124 401.864 599.167 401.616C599.209 401.379 599.265 400.992 599.061 400.643C598.849 400.281 598.472 400.148 598.214 400.075C597.934 399.995 597.546 399.926 597.087 399.838ZM351.091 387.833C350.104 387.822 349.204 388.063 348.49 388.62C347.772 389.179 347.309 390.003 347.099 391.031C346.863 392.187 347.313 393.39 348.039 394.273C348.766 395.158 349.869 395.84 351.09 395.829C353.397 395.808 355.083 394.031 355.083 391.831C355.082 389.605 353.189 387.856 351.091 387.833ZM217.552 386.463C217.21 386.476 216.886 386.5 216.484 386.5C216.079 386.5 215.722 386.499 215.435 386.523C215.154 386.546 214.841 386.598 214.568 386.764C214.263 386.95 214.094 387.224 213.995 387.513C213.904 387.777 213.86 388.093 213.823 388.425C213.727 389.291 214.002 390.04 214.678 390.536C215.301 390.992 216.173 391.165 217.15 391.165C217.616 391.165 218.032 391.149 218.382 391.086C218.733 391.024 219.092 390.903 219.374 390.632C219.666 390.352 219.792 389.994 219.838 389.631C219.883 389.281 219.861 388.873 219.811 388.425C219.758 387.952 219.657 387.535 219.451 387.204C219.223 386.839 218.902 386.632 218.54 386.536C218.217 386.45 217.864 386.452 217.552 386.463ZM624.043 367.698C622.346 367.558 620.526 367.627 619.095 367.989C618.383 368.169 617.718 368.433 617.213 368.819C616.695 369.215 616.315 369.768 616.287 370.481C616.201 372.608 617.509 374.713 618.745 376.018C619.364 376.673 620.037 377.204 620.609 377.445C620.87 377.555 621.266 377.671 621.649 377.525C622.14 377.337 622.284 376.871 622.284 376.505C622.284 376.4 622.349 376.201 622.79 375.875C623.216 375.56 623.831 375.245 624.597 374.861C626.076 374.12 628.03 373.173 629.44 371.623C629.657 371.383 629.826 371.108 629.896 370.797C629.968 370.476 629.925 370.163 629.793 369.882C629.55 369.361 629.027 368.995 628.495 368.732C627.396 368.19 625.733 367.837 624.043 367.698ZM215.151 365.177C214.594 365.177 214.111 365.452 213.736 365.777C213.354 366.107 213.021 366.544 212.748 367C212.213 367.891 211.819 369.011 211.819 369.841C211.819 370.836 212.438 371.546 213.292 371.961C214.123 372.366 215.243 372.536 216.5 372.506C217.228 372.489 217.833 372.275 218.316 371.912C218.792 371.553 219.112 371.077 219.328 370.59C219.751 369.633 219.815 368.532 219.815 367.842C219.815 367.265 219.521 366.808 219.164 366.478C218.811 366.153 218.354 365.908 217.897 365.725C216.984 365.36 215.9 365.177 215.151 365.177ZM397.779 281.22C397.095 281.168 396.427 281.184 395.837 281.447C395.216 281.724 394.777 282.229 394.455 282.943C394.165 283.584 393.983 284.311 394.43 284.928C394.632 285.207 394.919 285.392 395.209 285.526C395.502 285.661 395.851 285.767 396.234 285.863C397.144 286.09 398.114 285.933 398.886 285.492C399.663 285.048 400.286 284.285 400.389 283.287C400.432 282.873 400.42 282.479 400.28 282.141C400.122 281.761 399.837 281.531 399.514 281.409C399.23 281.301 398.913 281.275 398.65 281.261C398.346 281.246 398.103 281.245 397.779 281.22Z" fill="black"/>
<path d="M147.185 383.836C147.185 383.836 142.521 385.835 139.856 387.167C137.19 388.5 142.521 398.495 147.185 396.496C151.85 394.497 147.185 383.836 147.185 383.836Z" fill="#FC9046"/>
<path d="M152.516 403.826C151.165 399.613 151.184 392.498 152.516 392.498C153.849 392.498 160.014 397.107 162.511 401.827C165.009 406.546 166 414.487 164.51 415.82C163.021 417.152 153.867 408.038 152.516 403.826Z" fill="#FC9046"/>
<path d="M152.516 425.148C151.85 424.105 153.59 420.484 154.515 419.818C155.441 419.151 160.087 419.151 160.512 419.818C160.938 420.484 159.439 424.482 158.513 425.148C157.588 425.815 153.183 426.191 152.516 425.148Z" fill="#FC9046"/>
<path d="M265.127 399.828C267.439 400.286 271.124 399.828 271.124 399.161C271.124 398.495 270.612 391.925 269.125 389.166C267.639 386.408 265.533 383.714 263.795 383.169C262.056 382.624 260.771 382.377 259.13 383.169C257.49 383.961 256.819 389.166 257.131 391.165C257.443 393.164 262.816 399.37 265.127 399.828Z" fill="#FC9046"/>
<path d="M260.463 399.828C262.462 399.828 266.46 403.826 266.46 405.158C266.46 406.491 261.796 410.567 260.463 410.489C259.13 410.411 255.132 407.157 255.132 405.158C255.132 403.159 258.464 399.828 260.463 399.828Z" fill="#FC9046"/>
<path d="M233.809 464.462C233.809 463.358 234.715 462.619 235.808 462.463C236.901 462.307 238.474 463.161 238.474 464.462C238.474 465.763 236.901 466.618 235.808 466.461C234.715 466.305 233.809 465.566 233.809 464.462Z" fill="#FC9046"/>
<path d="M317.768 477.789C318.434 477.745 318.434 467.794 317.768 467.794C317.102 467.794 312.621 469.698 312.437 472.458C312.253 475.218 317.102 477.834 317.768 477.789Z" fill="#FC9046"/>
<path d="M296.445 439.808C295.779 440.474 287.256 432.478 287.783 431.812C288.309 431.145 295.902 430.641 296.445 431.145C296.988 431.65 297.111 439.142 296.445 439.808Z" fill="#FC9046"/>
<path d="M324.431 408.49C322.432 409.156 321.506 409.033 319.767 408.49C318.028 407.947 322.432 392.498 326.43 394.497C330.428 396.496 326.43 407.824 324.431 408.49Z" fill="#FC9046"/>
<path d="M336.425 410.489L331.761 415.153C331.095 415.82 341.09 421.817 341.756 420.484C342.422 419.151 337.092 409.823 336.425 410.489Z" fill="#FC9046"/>
<path d="M341.756 365.178C341.919 363.715 342.958 362.675 344.421 362.513C345.884 362.35 347.937 364.188 347.753 365.844C347.569 367.5 346.077 368.694 344.421 368.51C342.765 368.326 341.593 366.641 341.756 365.178Z" fill="#FC9046"/>
<path d="M347.087 355.849C347.103 354.009 348.578 352.534 350.418 352.518C352.258 352.501 354.029 355.07 353.75 356.516C353.472 357.961 352.53 358.902 351.085 359.181C349.639 359.459 347.07 357.689 347.087 355.849Z" fill="#FC9046"/>
<path d="M402.393 305.208C402.275 303.545 403.859 301.01 405.724 301.21C407.59 301.409 408.586 303.378 408.39 305.208C408.194 307.037 406.714 308.723 405.058 308.539C403.402 308.355 402.51 306.87 402.393 305.208Z" fill="#FC9046"/>
<path d="M425.048 180.602L434.377 168.608C434.377 168.608 447.037 171.94 447.037 173.939C447.037 175.938 425.048 180.602 425.048 180.602Z" fill="#FC9046"/>
<path d="M470.359 154.615C468.602 151.587 468.36 139.992 470.359 139.956C472.358 139.92 476.07 146.832 477.023 150.617C477.975 154.403 480.37 159.586 477.023 160.612C473.675 161.639 472.117 157.643 470.359 154.615Z" fill="#FC9046"/>
<path d="M487.018 150.617C486.802 149.285 490.349 147.21 491.682 147.286C493.015 147.361 493.681 147.552 493.681 149.951C493.681 152.35 493.015 152.505 491.682 152.616C490.349 152.728 487.233 151.95 487.018 150.617Z" fill="#FC9046"/>
<path d="M380.404 605.06C380.455 604.137 382.403 602.394 383.069 601.728C383.735 601.061 387.822 605.06 387.733 606.393C387.644 607.725 383.735 610.144 382.403 609.724C381.07 609.304 380.352 605.982 380.404 605.06Z" fill="#FC9046"/>
<path d="M417.052 531.762C416.841 531.34 399.31 531.312 399.061 531.762C398.812 532.213 397.062 537.759 397.728 537.759C398.395 537.759 416.386 537.093 416.386 537.093C416.386 537.093 417.263 532.185 417.052 531.762Z" fill="#FC9046"/>
<path d="M477.023 531.096C477.023 529.097 430.379 529.763 430.379 529.763L433.711 537.093C433.711 537.093 477.023 533.095 477.023 531.096Z" fill="#FC9046"/>
<path d="M439.708 468.46C441.917 467.727 444.372 465.746 445.038 465.795C445.705 465.844 448.37 473.125 449.703 474.457C451.035 475.79 417.718 467.128 417.052 466.461C416.386 465.795 415.053 461.797 416.386 461.131C417.718 460.464 437.499 469.194 439.708 468.46Z" fill="#FC9046"/>
<path d="M427.713 497.113C430.083 500.732 434.103 501.681 437.709 499.778C441.314 497.875 442.752 493.574 441.04 489.783C439.329 485.992 435.102 484.063 431.045 485.785C426.988 487.507 425.344 493.494 427.713 497.113Z" fill="#FC9046"/>
<path d="M457.699 539.758C457.95 538.525 458.423 537.942 459.698 537.759C460.973 537.577 462.452 538.997 462.363 540.425C462.274 541.852 461.089 542.947 459.698 542.778C458.307 542.609 457.448 540.992 457.699 539.758Z" fill="#FC9046"/>
<path d="M480.354 501.111C482.696 505.022 490.89 505.716 494.347 501.111C497.804 496.505 492.278 486.68 487.684 487.118C483.09 487.556 482.802 488.869 481.02 491.782C479.239 494.695 478.013 497.2 480.354 501.111Z" fill="#FC9046"/>
<path d="M505.675 485.119C505.009 485.119 500.871 486.451 500.344 487.784C499.818 489.117 505.675 493.115 507.008 493.115C508.34 493.115 516.754 491.116 517.003 489.117C517.252 487.118 506.341 485.119 505.675 485.119Z" fill="#FC9046"/>
<path d="M515.67 499.778C514.337 498.751 507.378 494.366 505.009 497.779C502.64 501.192 506.586 504.419 509.673 507.108C512.76 509.797 517.003 510.266 519.668 510.44C522.333 510.614 534.994 506.442 535.66 504.443C536.326 502.443 536.519 503.172 534.327 499.778C532.136 496.385 519.668 503.776 519.002 503.776C518.335 503.776 517.003 500.805 515.67 499.778Z" fill="#FC9046"/>
<path d="M560.981 496.446C559.436 495.114 544.989 494.719 542.324 497.779C539.658 500.839 564.355 512.439 564.979 510.44C565.603 508.441 562.526 497.779 560.981 496.446Z" fill="#FC9046"/>
<path d="M566.312 478.455C565.127 477.123 562.024 476.533 560.315 478.455C558.606 480.378 561.965 485.034 562.98 485.119C563.995 485.203 567.496 479.788 566.312 478.455Z" fill="#FC9046"/>
<path d="M580.305 481.787C580.971 480.454 585.339 471.126 585.635 470.459C585.932 469.793 576.149 470.459 575.64 471.126C575.132 471.792 579.638 483.12 580.305 481.787Z" fill="#FC9046"/>
<path d="M588.301 412.488C587.381 411.2 587.894 409.472 588.967 408.49C590.041 407.508 590.745 407.124 592.299 407.824C593.853 408.523 593.867 412.207 592.299 413.154C590.731 414.102 589.221 413.776 588.301 412.488Z" fill="#FC9046"/>
<path d="M623.617 403.159C629.034 399.832 636.099 394.458 637.61 399.161C639.12 403.864 634.837 403.371 632.279 408.49C629.721 413.609 630.709 424.731 625.616 425.815C620.522 426.898 620.511 426.179 617.62 424.482C614.728 422.785 613.455 422.307 612.289 417.152C611.123 411.997 618.2 406.486 623.617 403.159Z" fill="#FC9046"/>
<path d="M626.948 391.165C629.423 392.803 635.939 394.831 636.943 391.165C637.948 387.499 632.689 385.392 629.614 385.168C626.538 384.945 623.922 384.937 623.617 387.167C623.311 389.397 624.473 389.527 626.948 391.165Z" fill="#FC9046"/>
<path d="M608.957 490.449C612.62 488.08 616.634 489.895 618.286 492.448C619.938 495.002 620.224 494.995 618.952 498.446C617.681 501.896 605.295 492.819 608.957 490.449Z" fill="#FC9046"/>
<path d="M574.974 704.344C576.307 702.345 577.639 695.015 577.639 693.682C577.639 692.35 571.815 689.711 571.642 687.019C571.47 684.327 572.975 684.249 572.975 682.355C572.975 680.46 573.186 678.943 571.642 677.69C570.099 676.437 569.868 676.394 566.312 677.69C562.755 678.986 563.469 685.986 564.979 691.683C566.489 697.381 573.641 706.343 574.974 704.344Z" fill="#FC9046"/>
<path d="M556.983 721.002C562.212 721.102 562.583 720.771 564.979 716.338C567.375 711.904 560.625 701.556 554.318 703.677C548.01 705.799 551.754 720.902 556.983 721.002Z" fill="#FC9046"/>
<path d="M546.988 749.655C547.146 747.891 549.137 746.668 550.986 746.989C552.835 747.311 554.567 750.021 553.651 751.654C552.735 753.286 551.243 753.449 549.653 752.986C548.063 752.524 546.83 751.419 546.988 749.655Z" fill="#FC9046"/>
<path d="M530.329 748.322C532.485 749.055 533.473 750.706 532.995 752.986C532.516 755.267 528.863 756.729 526.998 755.652C525.132 754.574 524.743 753.738 524.999 751.654C525.254 749.569 528.174 747.589 530.329 748.322Z" fill="#FC9046"/>
<path d="M501.677 599.729C501.011 597.063 489.974 593.882 489.974 595.215C489.974 596.547 490.532 609.606 491.016 611.057C491.499 612.507 502.343 602.394 501.677 599.729Z" fill="#FC9046"/>
<path d="M539.658 559.749C540.991 559.515 552.452 565.079 552.319 565.746C552.185 566.412 540.325 567.745 538.992 567.745C537.659 567.745 532.536 567.078 532.995 563.08C533.454 559.082 538.326 559.982 539.658 559.749Z" fill="#FC9046"/>
<path d="M147.185 383.836C147.185 383.836 142.521 385.835 139.856 387.167C137.19 388.5 142.521 398.495 147.185 396.496C151.85 394.497 147.185 383.836 147.185 383.836Z" stroke="#FC9046" stroke-width="1.33267"/>
<path d="M152.516 403.826C151.165 399.613 151.184 392.498 152.516 392.498C153.849 392.498 160.014 397.107 162.511 401.827C165.009 406.546 166 414.487 164.51 415.82C163.021 417.152 153.867 408.038 152.516 403.826Z" stroke="#FC9046" stroke-width="1.33267"/>
<path d="M152.516 425.148C151.85 424.105 153.59 420.484 154.515 419.818C155.441 419.151 160.087 419.151 160.512 419.818C160.938 420.484 159.439 424.482 158.513 425.148C157.588 425.815 153.183 426.191 152.516 425.148Z" stroke="#FC9046" stroke-width="1.33267"/>
<path d="M265.127 399.828C267.439 400.286 271.124 399.828 271.124 399.161C271.124 398.495 270.612 391.925 269.125 389.166C267.639 386.408 265.533 383.714 263.795 383.169C262.056 382.624 260.771 382.377 259.13 383.169C257.49 383.961 256.819 389.166 257.131 391.165C257.443 393.164 262.816 399.37 265.127 399.828Z" stroke="#FC9046" stroke-width="1.33267"/>
<path d="M260.463 399.828C262.462 399.828 266.46 403.826 266.46 405.158C266.46 406.491 261.796 410.567 260.463 410.489C259.13 410.411 255.132 407.157 255.132 405.158C255.132 403.159 258.464 399.828 260.463 399.828Z" stroke="#FC9046" stroke-width="1.33267"/>
<path d="M233.809 464.462C233.809 463.358 234.715 462.619 235.808 462.463C236.901 462.307 238.474 463.161 238.474 464.462C238.474 465.763 236.901 466.618 235.808 466.461C234.715 466.305 233.809 465.566 233.809 464.462Z" stroke="#FC9046" stroke-width="1.33267"/>
<path d="M317.768 477.789C318.434 477.745 318.434 467.794 317.768 467.794C317.102 467.794 312.621 469.698 312.437 472.458C312.253 475.218 317.102 477.834 317.768 477.789Z" stroke="#FC9046" stroke-width="1.33267"/>
<path d="M296.445 439.808C295.779 440.474 287.256 432.478 287.783 431.812C288.309 431.145 295.902 430.641 296.445 431.145C296.988 431.65 297.111 439.142 296.445 439.808Z" stroke="#FC9046" stroke-width="1.33267"/>
<path d="M324.431 408.49C322.432 409.156 321.506 409.033 319.767 408.49C318.028 407.947 322.432 392.498 326.43 394.497C330.428 396.496 326.43 407.824 324.431 408.49Z" stroke="#FC9046" stroke-width="1.33267"/>
<path d="M336.425 410.489L331.761 415.153C331.095 415.82 341.09 421.817 341.756 420.484C342.422 419.151 337.092 409.823 336.425 410.489Z" stroke="#FC9046" stroke-width="1.33267"/>
<path d="M341.756 365.178C341.919 363.715 342.958 362.675 344.421 362.513C345.884 362.35 347.937 364.188 347.753 365.844C347.569 367.5 346.077 368.694 344.421 368.51C342.765 368.326 341.593 366.641 341.756 365.178Z" stroke="#FC9046" stroke-width="1.33267"/>
<path d="M347.087 355.849C347.103 354.009 348.578 352.534 350.418 352.518C352.258 352.501 354.029 355.07 353.75 356.516C353.472 357.961 352.53 358.902 351.085 359.181C349.639 359.459 347.07 357.689 347.087 355.849Z" stroke="#FC9046" stroke-width="1.33267"/>
<path d="M402.393 305.208C402.275 303.545 403.859 301.01 405.724 301.21C407.59 301.409 408.586 303.378 408.39 305.208C408.194 307.037 406.714 308.723 405.058 308.539C403.402 308.355 402.51 306.87 402.393 305.208Z" stroke="#FC9046" stroke-width="1.33267"/>
<path d="M425.048 180.602L434.377 168.608C434.377 168.608 447.037 171.94 447.037 173.939C447.037 175.938 425.048 180.602 425.048 180.602Z" stroke="#FC9046" stroke-width="1.33267"/>
<path d="M470.359 154.615C468.602 151.587 468.36 139.992 470.359 139.956C472.358 139.92 476.07 146.832 477.023 150.617C477.975 154.403 480.37 159.586 477.023 160.612C473.675 161.639 472.117 157.643 470.359 154.615Z" stroke="#FC9046" stroke-width="1.33267"/>
<path d="M487.018 150.617C486.802 149.285 490.349 147.21 491.682 147.286C493.015 147.361 493.681 147.552 493.681 149.951C493.681 152.35 493.015 152.505 491.682 152.616C490.349 152.728 487.233 151.95 487.018 150.617Z" stroke="#FC9046" stroke-width="1.33267"/>
<path d="M380.404 605.06C380.455 604.137 382.403 602.394 383.069 601.728C383.735 601.061 387.822 605.06 387.733 606.393C387.644 607.725 383.735 610.144 382.403 609.724C381.07 609.304 380.352 605.982 380.404 605.06Z" stroke="#FC9046" stroke-width="1.33267"/>
<path d="M417.052 531.762C416.841 531.34 399.31 531.312 399.061 531.762C398.812 532.213 397.062 537.759 397.728 537.759C398.395 537.759 416.386 537.093 416.386 537.093C416.386 537.093 417.263 532.185 417.052 531.762Z" stroke="#FC9046" stroke-width="1.33267"/>
<path d="M477.023 531.096C477.023 529.097 430.379 529.763 430.379 529.763L433.711 537.093C433.711 537.093 477.023 533.095 477.023 531.096Z" stroke="#FC9046" stroke-width="1.33267"/>
<path d="M439.708 468.46C441.917 467.727 444.372 465.746 445.038 465.795C445.705 465.844 448.37 473.125 449.703 474.457C451.035 475.79 417.718 467.128 417.052 466.461C416.386 465.795 415.053 461.797 416.386 461.131C417.718 460.464 437.499 469.194 439.708 468.46Z" stroke="#FC9046" stroke-width="1.33267"/>
<path d="M427.713 497.113C430.083 500.732 434.103 501.681 437.709 499.778C441.314 497.875 442.752 493.574 441.04 489.783C439.329 485.992 435.102 484.063 431.045 485.785C426.988 487.507 425.344 493.494 427.713 497.113Z" stroke="#FC9046" stroke-width="1.33267"/>
<path d="M457.699 539.758C457.95 538.525 458.423 537.942 459.698 537.759C460.973 537.577 462.452 538.997 462.363 540.425C462.274 541.852 461.089 542.947 459.698 542.778C458.307 542.609 457.448 540.992 457.699 539.758Z" stroke="#FC9046" stroke-width="1.33267"/>
<path d="M480.354 501.111C482.696 505.022 490.89 505.716 494.347 501.111C497.804 496.505 492.278 486.68 487.684 487.118C483.09 487.556 482.802 488.869 481.02 491.782C479.239 494.695 478.013 497.2 480.354 501.111Z" stroke="#FC9046" stroke-width="1.33267"/>
<path d="M505.675 485.119C505.009 485.119 500.871 486.451 500.344 487.784C499.818 489.117 505.675 493.115 507.008 493.115C508.34 493.115 516.754 491.116 517.003 489.117C517.252 487.118 506.341 485.119 505.675 485.119Z" stroke="#FC9046" stroke-width="1.33267"/>
<path d="M515.67 499.778C514.337 498.751 507.378 494.366 505.009 497.779C502.64 501.192 506.586 504.419 509.673 507.108C512.76 509.797 517.003 510.266 519.668 510.44C522.333 510.614 534.994 506.442 535.66 504.443C536.326 502.443 536.519 503.172 534.327 499.778C532.136 496.385 519.668 503.776 519.002 503.776C518.335 503.776 517.003 500.805 515.67 499.778Z" stroke="#FC9046" stroke-width="1.33267"/>
<path d="M560.981 496.446C559.436 495.114 544.989 494.719 542.324 497.779C539.658 500.839 564.355 512.439 564.979 510.44C565.603 508.441 562.526 497.779 560.981 496.446Z" stroke="#FC9046" stroke-width="1.33267"/>
<path d="M566.312 478.455C565.127 477.123 562.024 476.533 560.315 478.455C558.606 480.378 561.965 485.034 562.98 485.119C563.995 485.203 567.496 479.788 566.312 478.455Z" stroke="#FC9046" stroke-width="1.33267"/>
<path d="M580.305 481.787C580.971 480.454 585.339 471.126 585.635 470.459C585.932 469.793 576.149 470.459 575.64 471.126C575.132 471.792 579.638 483.12 580.305 481.787Z" stroke="#FC9046" stroke-width="1.33267"/>
<path d="M588.301 412.488C587.381 411.2 587.894 409.472 588.967 408.49C590.041 407.508 590.745 407.124 592.299 407.824C593.853 408.523 593.867 412.207 592.299 413.154C590.731 414.102 589.221 413.776 588.301 412.488Z" stroke="#FC9046" stroke-width="1.33267"/>
<path d="M623.617 403.159C629.034 399.832 636.099 394.458 637.61 399.161C639.12 403.864 634.837 403.371 632.279 408.49C629.721 413.609 630.709 424.731 625.616 425.815C620.522 426.898 620.511 426.179 617.62 424.482C614.728 422.785 613.455 422.307 612.289 417.152C611.123 411.997 618.2 406.486 623.617 403.159Z" stroke="#FC9046" stroke-width="1.33267"/>
<path d="M626.948 391.165C629.423 392.803 635.939 394.831 636.943 391.165C637.948 387.499 632.689 385.392 629.614 385.168C626.538 384.945 623.922 384.937 623.617 387.167C623.311 389.397 624.473 389.527 626.948 391.165Z" stroke="#FC9046" stroke-width="1.33267"/>
<path d="M608.957 490.449C612.62 488.08 616.634 489.895 618.286 492.448C619.938 495.002 620.224 494.995 618.952 498.446C617.681 501.896 605.295 492.819 608.957 490.449Z" stroke="#FC9046" stroke-width="1.33267"/>
<path d="M574.974 704.344C576.307 702.345 577.639 695.015 577.639 693.682C577.639 692.35 571.815 689.711 571.642 687.019C571.47 684.327 572.975 684.249 572.975 682.355C572.975 680.46 573.186 678.943 571.642 677.69C570.099 676.437 569.868 676.394 566.312 677.69C562.755 678.986 563.469 685.986 564.979 691.683C566.489 697.381 573.641 706.343 574.974 704.344Z" stroke="#FC9046" stroke-width="1.33267"/>
<path d="M556.983 721.002C562.212 721.102 562.583 720.771 564.979 716.338C567.375 711.904 560.625 701.556 554.318 703.677C548.01 705.799 551.754 720.902 556.983 721.002Z" stroke="#FC9046" stroke-width="1.33267"/>
<path d="M546.988 749.655C547.146 747.891 549.137 746.668 550.986 746.989C552.835 747.311 554.567 750.021 553.651 751.654C552.735 753.286 551.243 753.449 549.653 752.986C548.063 752.524 546.83 751.419 546.988 749.655Z" stroke="#FC9046" stroke-width="1.33267"/>
<path d="M530.329 748.322C532.485 749.055 533.473 750.706 532.995 752.986C532.516 755.267 528.863 756.729 526.998 755.652C525.132 754.574 524.743 753.738 524.999 751.654C525.254 749.569 528.174 747.589 530.329 748.322Z" stroke="#FC9046" stroke-width="1.33267"/>
<path d="M501.677 599.729C501.011 597.063 489.974 593.882 489.974 595.215C489.974 596.547 490.532 609.606 491.016 611.057C491.499 612.507 502.343 602.394 501.677 599.729Z" stroke="#FC9046" stroke-width="1.33267"/>
<path d="M539.658 559.749C540.991 559.515 552.452 565.079 552.319 565.746C552.185 566.412 540.325 567.745 538.992 567.745C537.659 567.745 532.536 567.078 532.995 563.08C533.454 559.082 538.326 559.982 539.658 559.749Z" stroke="#FC9046" stroke-width="1.33267"/>
<path d="M162.513 516.57C163.789 499.182 169.178 477.922 162.513 473.16C155.848 468.398 122.529 517.04 106.539 510.475C90.5486 503.91 101.954 483.854 98.5446 479.921C95.1353 475.989 91.4839 475.683 87.8832 471.925C84.2825 468.168 83.3115 445.078 76.5555 445.938C69.7994 446.799 69.3821 453.898 63.8951 457.932C58.4081 461.967 51.8971 469.228 44.5693 467.163C37.2416 465.098 32.5753 451.171 32.5753 445.938C32.5753 440.705 41.2396 387.399 44.5693 375.973C47.8991 364.547 51.2346 362.078 48.5693 343.989C45.9039 325.9 22.1282 328.761 21.9158 318.668C21.7034 308.575 61.2297 305.439 61.2297 296.012C61.2297 286.586 49.2356 282.784 45.9039 263.362C42.5723 243.94 102.541 229.281 120.532 229.281C138.523 229.281 151.725 231.548 164.512 242.039C177.299 252.53 173.173 297.247 191.164 311.906C209.155 326.566 215.152 303.244 247.136 311.906C279.12 320.569 278.458 353.984 285.785 353.984C293.113 353.984 310.091 307.025 326.432 278.688C342.773 250.35 479.025 68.8892 485.687 62.1279C492.348 55.3665 521.004 42.1376 526.333 42.1377C531.662 42.1378 536.327 82.6864 534.996 93.4457C533.665 104.205 427.322 337.931 432.38 349.319C437.437 360.708 444.243 365.336 447.705 377.306C451.168 389.276 431.91 428.68 436.182 441.94C440.454 455.2 451.506 471.828 458.169 473.16C464.833 474.493 480.354 416.522 503.676 416.522C526.998 416.522 529.667 439.373 536.995 441.94C544.323 444.508 612.289 307.242 635.613 286.017C658.936 264.792 651.261 269.419 658.934 271.358C666.608 273.297 668.216 279.658 672.928 286.017C677.639 292.376 680.145 353.857 676.926 377.306C673.706 400.754 656.271 432.043 661.6 435.943C666.929 439.843 672.928 429.378 695.581 431.279C718.235 433.18 732.896 463.866 736.894 463.866C740.892 463.866 764.212 427.947 776.874 427.947C789.537 427.947 794.128 430.682 793.533 431.279C792.938 431.876 799.532 438.04 804.194 451.935C808.857 465.83 779.609 495.247 775.542 515.806C771.474 536.364 849.505 663.066 849.505 663.066C849.505 663.066 873.493 689.928 814.856 669.73C756.218 649.532 755.614 611.424 746.889 617.316C738.164 623.208 741.558 624.419 733.562 631.749C725.566 639.078 708.412 616.638 689.586 615.188C670.76 613.738 640.991 660.132 630.282 658.5C619.573 656.868 615.24 650.592 604.961 647.172C594.682 643.753 558.319 895.814 553.653 919.038C548.987 942.262 551.56 940.414 541.657 948.259C531.754 956.103 501.011 896.284 484.354 863.732C467.697 831.179 521.003 692.483 505.009 689.72C489.014 686.957 505.675 661.734 493.014 653.738C480.354 645.742 495.013 670.396 481.02 665.732C467.027 661.067 466.791 597.3 450.369 605.095C433.947 612.89 432.97 625.956 429.714 643.84C426.458 661.725 451.035 680.391 433.71 700.381C416.386 720.371 371.075 653.738 365.078 651.739C359.081 649.74 341.756 673.451 311.771 670.396C281.785 667.341 295.789 656.417 281.119 653.738C266.45 651.058 228.478 706.476 207.158 706.476C185.837 706.476 187.53 704.24 177.172 697.814C166.815 691.388 157.212 674.93 150.519 657.167C143.826 639.404 144.369 621.102 145.188 597.863C146.007 574.625 161.237 533.958 162.513 516.57Z" stroke="#FF5218" stroke-width="6.66337"/>
<path d="M147.198 509.317C148.583 490.444 149.75 460.139 145.186 458.501C140.623 456.863 90.1859 510.67 81.771 499.453C73.3561 488.235 81.4692 473.807 77.7688 469.54L77.2813 468.977C74.0361 465.233 73.6194 464.753 69.8903 460.861C65.9822 456.782 61.8973 429.58 54.5645 430.515C47.2317 431.449 46.1166 441.294 40.1612 445.673L39.8312 445.916C33.9866 450.217 28.1285 454.528 18.5822 451.837C8.85632 449.096 11.3091 442.979 7.92091 432.655C4.53269 422.331 12.3535 376.04 18.5822 361.215C24.811 346.391 36.3275 331.897 32.929 320.065C29.5304 308.234 4.00006 306.638 4 292.583C3.99994 278.527 36.0247 274.592 37.2397 268.595C38.4548 262.598 21.7354 254.601 20.6341 234.492C19.5329 214.382 87.0028 193.21 104.756 195.876C122.508 198.543 136.524 199.962 159.179 223.284C181.835 246.605 172.506 286.586 191.83 292.583C211.154 298.58 206.186 277.292 241.139 288.585C276.092 299.877 274.456 340.732 283.118 328.565C291.781 316.397 310.718 281.882 328.454 251.126C346.19 220.369 489.017 36.7093 501.677 25.3815C514.337 14.0536 542.666 0.726972 547.654 4.72493C552.642 8.7229 556.983 45.3716 554.66 57.5105C552.338 69.6493 440.325 328.565 443.284 335.228C446.243 341.892 445.705 342.558 452.74 356.164C459.775 369.77 437.057 412.99 438.375 427.849C439.693 442.709 443.674 458.885 456.738 466.497C469.802 474.109 489.764 408.526 514.378 407.193C538.992 405.86 538.326 419.187 547.654 429.848C556.983 440.51 646.274 274.009 662.05 262.797C677.827 251.586 689.752 256.866 689.752 256.866C689.752 256.866 695.581 261.265 697.58 270.594C699.579 279.922 706.026 335.895 701.188 360.549C696.349 385.204 676.257 416.522 684.253 423.185C692.25 429.848 706.776 419.406 730.231 427.849C753.686 436.293 757.018 468.943 769.012 456.283C781.006 443.622 797.994 424.703 804.861 421.807C811.727 418.911 819.649 423.012 825.517 427.849C831.385 432.687 834.929 441.227 837.511 450.736C840.093 460.244 816.855 488.486 804.861 516.472C792.866 544.458 903.479 684.337 886.154 690.386C868.829 696.435 852.232 687.052 837.511 684.337C822.79 681.622 780.739 639.078 775.542 630.416C770.344 621.754 760.882 645.742 750.887 645.742C740.892 645.742 710.241 623.753 700.246 623.753C690.251 623.753 653.898 668.169 642.274 666.398C630.651 664.627 634.773 660.114 623.617 656.403C612.46 652.692 560.511 929.601 556.513 944.927C552.515 960.253 555.071 969.063 544.323 977.577C533.574 986.091 496.405 918.593 480.244 882.784C464.083 846.975 497.013 720.518 497.013 708.45C497.013 696.383 489.683 693.718 484.352 683.723C479.022 673.728 482.353 696.383 471.025 693.052C459.698 689.72 466.194 591.303 448.37 599.764C430.546 608.225 425.048 631.748 427.047 645.075C429.046 658.402 452.368 683.723 425.048 699.049C397.728 714.374 380.375 634.966 361.746 647.453C343.117 659.939 329.437 668.705 313.335 667.064C297.233 665.424 301.776 658.402 285.117 651.069C268.459 643.735 200.115 709.093 186.902 708.45C173.688 707.808 165.598 706.023 154.357 699.049C143.115 692.074 139.124 683.012 131.86 663.733C124.595 644.453 127.506 622.773 128.394 597.55C129.283 572.328 145.813 528.189 147.198 509.317Z" stroke="#FF5218" stroke-width="6.66337"/>
<path d="M117.192 394.555C98.5327 398.639 82.2609 391.374 72.3371 375.053C67.7928 367.58 66.0559 362.269 66.1649 353.523C66.3392 339.549 77.0577 334.594 83.0007 321.946C91.2114 304.471 85.0946 287.001 100.849 275.839C129.359 255.64 156.748 316.392 149.912 350.657C145.729 371.625 138.079 389.984 117.192 394.555Z" fill="url(#paint0_linear_64_21)" stroke="black" stroke-width="3.99802"/>
<path d="M138.108 294.41C136.752 284.127 84.709 301.401 87.871 308.812C91.033 316.222 89.2341 322.597 98.9339 320.31C108.634 318.024 109 302.746 111.793 301.954C114.587 301.162 117.144 313.092 128.039 311.966C138.935 310.841 139.463 304.692 138.108 294.41Z" fill="black" stroke="#060606" stroke-width="1.65906"/>
<path d="M103.939 325.547C103.939 325.547 110.091 331.429 115.025 330.351C121.419 328.955 125.928 322.479 125.928 322.479" stroke="black" stroke-width="2.4886"/>
<path d="M75.4218 332.948C68.6922 331.715 58.9895 323.5 60.2092 319.87" stroke="black" stroke-width="5.3307"/>
<path d="M75.326 380.382C75.326 380.382 70.8638 383.474 68.6763 386.113C66.4889 388.753 62.7622 405.646 62.7622 405.646" stroke="black" stroke-width="5.3307"/>
<path d="M149.851 332.466C155.706 333.245 165.872 329.159 165.843 325.9" stroke="black" stroke-width="5.3307"/>
<path d="M99.7556 395.199C99.7556 395.199 93.8781 406.526 93.0129 408.989C90.6008 415.855 92.9338 420.593 92.9338 420.593" stroke="black" stroke-width="5.3307"/>
<path d="M84.5819 425.381C83.1393 420.975 94.0027 417.607 94.2902 418.223C94.5777 418.839 96.3566 424.978 96.4825 425.713C96.6085 426.448 86.0246 429.786 84.5819 425.381Z" fill="black" stroke="black" stroke-width="1.33267"/>
<path d="M52.8678 406.237C53.9732 401.735 64.9744 404.621 64.8928 405.296C64.8111 405.971 63.0742 412.122 62.7924 412.813C62.5105 413.503 51.7624 410.739 52.8678 406.237Z" fill="black" stroke="black" stroke-width="1.33267"/>
<path d="M65.8924 316.571C67.2248 317.903 63.2268 321.235 59.8953 321.235C56.5639 321.235 55.8971 318.57 55.8971 315.238C55.8971 311.906 57.8961 311.24 59.2288 311.907C60.5615 312.573 60.2709 315.904 60.2709 315.904L61.8943 315.904C62.5609 315.904 64.5599 315.238 65.8924 316.571Z" fill="black" stroke="black" stroke-width="0.666337"/>
<path d="M159.419 324.014C158.207 325.314 161.843 328.565 164.872 328.565C167.902 328.565 168.508 325.964 168.508 322.713C168.508 319.463 166.69 318.813 165.478 319.463C164.266 320.113 164.531 323.364 164.531 323.364L163.054 323.364C162.448 323.364 160.63 322.713 159.419 324.014Z" fill="black" stroke="black" stroke-width="0.666337"/>
<defs>
<linearGradient id="paint0_linear_64_21" x1="82.7645" y1="279.625" x2="103.698" y2="395.742" gradientUnits="userSpaceOnUse">
<stop offset="0.291539" stop-color="#E79E00"/>
<stop offset="0.671034" stop-color="#E26B10"/>
</linearGradient>
</defs>
</svg>
