<svg width="26" height="56" viewBox="0 0 26 56" fill="none" xmlns="http://www.w3.org/2000/svg">
<path d="M18.2719 28.8599C16.2899 35.6954 11.4882 58.6963 10.6345 55.1497C9.78085 51.603 9.81176 49.1764 10.0262 45.8521C10.2407 42.5277 10.8823 40.7161 11.5807 37.4521C12.2791 34.1882 18.7969 13.8688 19.0153 12.8936C19.2337 11.9184 19.7588 10.3929 19.556 10.3929C19.3533 10.3929 18.6686 11.8271 18.1367 12.7654C17.6048 13.7036 15.0953 18.921 15.0277 19.1134C14.9601 19.3057 14.2167 21.8706 12.1214 22.1271C10.0262 22.3836 9.48555 19.3057 9.08002 19.3057C8.67448 19.3057 7.86346 23.6019 7.52551 24.0507C7.18756 24.4996 6.57957 24.8843 5.83583 24.8843C5.09209 24.8843 4.75484 24.4562 4.14615 24.0507C3.53746 23.6453 1.30748 19.947 1.10473 18.9851C0.901976 18.0233 0.960288 17.5891 1.57784 17.1256C2.19539 16.6621 2.862 16.6127 3.8758 17.3821C4.8896 18.1516 5.52595 19.7507 5.76824 19.3057C6.01053 18.8608 5.71935 18.522 5.76824 18.0233C5.81714 17.5246 6.7976 12.6164 9.21519 12.7654C11.6328 12.9143 12.2566 18.408 12.2566 17.8951C12.2566 17.3821 14.4217 11.6112 16.3794 9.04631C18.3371 6.48144 21.516 0.518143 23.9492 1.03112C26.3823 1.54409 23.9043 7.35232 23.3409 11.3547C22.7775 15.357 20.2538 22.0243 18.2719 28.8599Z" fill="black"/>
<path d="M11.5807 27.9318C11.7159 27.1624 12.189 24.854 12.9325 24.854C13.6759 24.854 13.312 27.6753 13.2028 28.1242C13.0937 28.573 12.1214 32.6127 11.7159 32.4844C11.3104 32.3562 11.4456 28.7013 11.5807 27.9318Z" fill="black"/>
<path d="M8.26896 25.2674C8.33653 25.0109 8.63095 24.4522 9.08002 24.4338C9.52908 24.4154 9.95865 25.075 10.0262 25.2674C10.0938 25.4597 9.79347 28.2889 9.62072 28.7299C9.44797 29.1709 9.14759 29.7559 8.94484 29.82C8.74209 29.8841 8.52755 28.9223 8.47173 28.7299C8.41591 28.5376 8.2014 25.5238 8.26896 25.2674Z" fill="black"/>
<path d="M18.2719 28.8599C16.2899 35.6954 11.4882 58.6963 10.6345 55.1497C9.78085 51.603 9.81176 49.1764 10.0262 45.8521C10.2407 42.5277 10.8823 40.7161 11.5807 37.4521C12.2791 34.1882 18.7969 13.8688 19.0153 12.8936C19.2337 11.9184 19.7588 10.3929 19.556 10.3929C19.3533 10.3929 18.6686 11.8271 18.1367 12.7654C17.6048 13.7036 15.0953 18.921 15.0277 19.1134C14.9601 19.3057 14.2167 21.8706 12.1214 22.1271C10.0262 22.3836 9.48555 19.3057 9.08002 19.3057C8.67448 19.3057 7.86346 23.6019 7.52551 24.0507C7.18756 24.4996 6.57957 24.8843 5.83583 24.8843C5.09209 24.8843 4.75484 24.4562 4.14615 24.0507C3.53746 23.6453 1.30748 19.947 1.10473 18.9851C0.901976 18.0233 0.960288 17.5891 1.57784 17.1256C2.19539 16.6621 2.862 16.6127 3.8758 17.3821C4.8896 18.1516 5.52595 19.7507 5.76824 19.3057C6.01053 18.8608 5.71935 18.522 5.76824 18.0233C5.81714 17.5246 6.7976 12.6164 9.21519 12.7654C11.6328 12.9143 12.2566 18.408 12.2566 17.8951C12.2566 17.3821 14.4217 11.6112 16.3794 9.04631C18.3371 6.48144 21.516 0.518143 23.9492 1.03112C26.3823 1.54409 23.9043 7.35232 23.3409 11.3547C22.7775 15.357 20.2538 22.0243 18.2719 28.8599Z" stroke="black" stroke-width="0.116439"/>
<path d="M11.5807 27.9318C11.7159 27.1624 12.189 24.854 12.9325 24.854C13.6759 24.854 13.312 27.6753 13.2028 28.1242C13.0937 28.573 12.1214 32.6127 11.7159 32.4844C11.3104 32.3562 11.4456 28.7013 11.5807 27.9318Z" stroke="black" stroke-width="0.116439"/>
<path d="M8.26896 25.2674C8.33653 25.0109 8.63095 24.4522 9.08002 24.4338C9.52908 24.4154 9.95865 25.075 10.0262 25.2674C10.0938 25.4597 9.79347 28.2889 9.62072 28.7299C9.44797 29.1709 9.14759 29.7559 8.94484 29.82C8.74209 29.8841 8.52755 28.9223 8.47173 28.7299C8.41591 28.5376 8.2014 25.5238 8.26896 25.2674Z" stroke="black" stroke-width="0.116439"/>
</svg>
