<svg width="261" height="334" viewBox="0 0 261 334" fill="none" xmlns="http://www.w3.org/2000/svg">
<path d="M172.077 269.061C213.295 275.752 247.353 260.015 266.051 226.723C274.613 211.477 277.458 200.76 275.697 183.34C272.883 155.506 248.751 146.462 233.645 121.717C212.774 87.5297 223.008 52.2427 186.862 31.2202C121.45 -6.8232 72.5816 116.365 93.3944 184.117C106.131 225.578 125.937 261.57 172.077 269.061Z" fill="url(#paint0_linear_73_317)" stroke="black" stroke-width="5.24008"/>
<path d="M109.214 71.115C110.365 50.5192 226.355 80.91 220.782 95.9218C215.21 110.934 220.226 123.498 198.77 119.693C177.315 115.888 173.856 85.4711 167.655 84.109C161.453 82.7469 157.981 106.72 134.132 105.321C110.283 103.922 108.064 91.7109 109.214 71.115Z" fill="black" stroke="#060606" stroke-width="2.17448"/>
<path d="M188.817 130.517C188.817 130.517 176.489 142.715 165.589 140.949C151.466 138.662 140.548 126.107 140.548 126.107" stroke="black" stroke-width="3.26172"/>
<path d="M252.015 143.055C266.409 140.076 286.041 122.953 282.76 115.815" stroke="black" stroke-width="6.98677"/>
<path d="M260.491 237.573C260.491 237.573 270.717 243.388 275.926 248.478C281.135 253.569 292.17 286.944 292.17 286.944" stroke="black" stroke-width="6.98677"/>
<path d="M90.3564 147.863C77.7814 149.868 55 142.513 54.4953 136.016" stroke="black" stroke-width="6.98677"/>
<path d="M210.041 268.992C210.041 268.992 224.774 291.11 227.082 295.951C233.515 309.446 229.276 319.068 229.276 319.068" stroke="black" stroke-width="6.98677"/>
<path d="M248.242 327.963C250.606 319.072 226.436 313.201 225.919 314.451C225.402 315.7 222.61 328.072 222.465 329.547C222.32 331.022 245.878 336.854 248.242 327.963Z" fill="black" stroke="black" stroke-width="1.74669"/>
<path d="M68.1124 131.76C70.9696 134.258 63.6435 141.017 57.0666 141.252C50.4898 141.487 48.7201 136.351 48.1535 129.873C47.5868 123.395 51.4198 121.959 54.1641 123.161C56.9085 124.362 56.9015 130.861 56.9015 130.861L60.1063 130.746C61.4221 130.699 65.2552 129.263 68.1124 131.76Z" fill="black" stroke="black" stroke-width="0.873347"/>
<defs>
<linearGradient id="paint0_linear_73_317" x1="226.781" y1="37.3639" x2="197.042" y2="269.8" gradientUnits="userSpaceOnUse">
<stop offset="0.291539" stop-color="#E79E00"/>
<stop offset="0.671034" stop-color="#E26B10"/>
</linearGradient>
</defs>
</svg>
