<svg width="38" height="38" viewBox="0 0 38 38" fill="none" xmlns="http://www.w3.org/2000/svg">
<path d="M8.66683 17.8333L2.3335 35.6666L20.1668 29.3499M5.66683 3.99992H5.6835M35.6668 12.3333H35.6835M24.0002 2.33325H24.0168M35.6668 32.3333H35.6835M35.6668 2.33325L31.9335 3.58325C30.8708 3.93723 29.964 4.64932 29.3682 5.59779C28.7724 6.54626 28.5245 7.67224 28.6668 8.78325C28.8335 10.2166 27.7168 11.4999 26.2502 11.4999H25.6168C24.1835 11.4999 22.9502 12.4999 22.6835 13.8999L22.3335 15.6666M35.6668 20.6666L34.3002 20.1166C32.8668 19.5499 31.2668 20.4499 31.0002 21.9666C30.8168 23.1333 29.8002 23.9999 28.6168 23.9999H27.3335M17.3335 2.33325L17.8835 3.69992C18.4502 5.13325 17.5502 6.73325 16.0335 6.99992C14.8668 7.16659 14.0002 8.19992 14.0002 9.38325V10.6666" stroke="black" stroke-width="3.33333" stroke-linecap="round" stroke-linejoin="round"/>
<path d="M17.3339 20.6665C20.5505 23.8832 22.0505 27.6165 20.6672 28.9998C19.2838 30.3832 15.5505 28.8832 12.3339 25.6665C9.11718 22.4498 7.61718 18.7165 9.00052 17.3332C10.3839 15.9498 14.1172 17.4498 17.3339 20.6665Z" stroke="black" stroke-width="3.33333" stroke-linecap="round" stroke-linejoin="round"/>
</svg>
