<svg width="34" height="79" viewBox="0 0 34 79" fill="none" xmlns="http://www.w3.org/2000/svg">
<path d="M24.8379 40.4289C22.1546 50.1085 15.7605 82.6482 14.4968 77.6572C13.2331 72.6662 13.2364 69.2411 13.4838 64.5461C13.7312 59.8511 14.6066 57.2838 15.538 52.6659C16.4693 48.048 25.3298 19.264 25.6217 17.8842C25.9137 16.5044 26.6293 14.3427 26.3432 14.3461C26.0571 14.3494 25.1147 16.3849 24.3796 17.7178C23.6446 19.0508 20.1898 26.4555 20.0976 26.7281C20.0054 27.0007 18.9989 30.6327 16.0463 31.0295C13.0937 31.4263 12.2795 27.0917 11.7072 27.0985C11.1349 27.1052 10.0617 33.1816 9.59227 33.8207C9.1228 34.4597 8.27118 35.0128 7.22158 35.0251C6.17198 35.0375 5.68891 34.4389 4.82317 33.8768C3.95743 33.3148 0.748893 28.1326 0.446773 26.7786C0.144653 25.4246 0.219728 24.8109 1.08354 24.1465C1.94735 23.4822 2.88728 23.4012 4.33078 24.4703C5.77429 25.5393 6.69893 27.7855 7.03346 27.1535C7.36799 26.5216 6.95143 26.0483 7.01214 25.3437C7.07285 24.6392 8.37493 17.6962 11.7892 17.8661C15.2035 18.0361 16.1752 25.7788 16.1667 25.0549C16.1582 24.331 19.1177 16.1508 21.8379 12.4986C24.5581 8.84637 28.9451 0.377857 32.3874 1.06134C35.8297 1.74482 32.4292 9.98285 31.7006 15.6405C30.972 21.2982 27.5213 30.7492 24.8379 40.4289Z" fill="currentColor" stroke="currentColor" stroke-width="0.164336"/>
<path d="M15.3797 39.2304C15.5577 38.1423 16.187 34.8767 17.2362 34.8644C18.2854 34.852 17.8187 38.8396 17.6721 39.4749C17.5255 40.1102 16.2206 45.8273 15.6462 45.653C15.0717 45.4788 15.2017 40.3185 15.3797 39.2304Z" fill="currentColor" stroke="currentColor" stroke-width="0.164336"/>
<path d="M10.6617 35.5253C10.7528 35.1622 11.159 34.3688 11.7924 34.3354C12.4259 34.302 13.0431 35.2257 13.1416 35.496C13.2402 35.7664 12.8634 39.7641 12.6269 40.3893C12.3905 41.0145 11.9763 41.845 11.6912 41.9389C11.4061 42.0327 11.0874 40.6789 11.0054 40.4084C10.9234 40.1379 10.5706 35.8883 10.6617 35.5253Z" fill="currentColor" stroke="currentColor" stroke-width="0.164336"/>
</svg>
<svg width="34" height="79" viewBox="0 0 34 79" fill="none" xmlns="http://www.w3.org/2000/svg" class=" ">
  <path d="M24.8379 40.4289C22.1546 50.1085 15.7605 82.6482 14.4968 77.6572C13.2331 72.6662 13.2364 69.2411 13.4838 64.5461C13.7312 59.8511 14.6066 57.2838 15.538 52.6659C16.4693 48.048 25.3298 19.264 25.6217 17.8842C25.9137 16.5044 26.6293 14.3427 26.3432 14.3461C26.0571 14.3494 25.1147 16.3849 24.3796 17.7178C23.6446 19.0508 20.1898 26.4555 20.0976 26.7281C20.0054 27.0007 18.9989 30.6327 16.0463 31.0295C13.0937 31.4263 12.2795 27.0917 11.7072 27.0985C11.1349 27.1052 10.0617 33.1816 9.59227 33.8207C9.1228 34.4597 8.27118 35.0128 7.22158 35.0251C6.17198 35.0375 5.68891 34.4389 4.82317 33.8768C3.95743 33.3148 0.748893 28.1326 0.446773 26.7786C0.144653 25.4246 0.219728 24.8109 1.08354 24.1465C1.94735 23.4822 2.88728 23.4012 4.33078 24.4703C5.77429 25.5393 6.69893 27.7855 7.03346 27.1535C7.36799 26.5216 6.95143 26.0483 7.01214 25.3437C7.07285 24.6392 8.37493 17.6962 11.7892 17.8661C15.2035 18.0361 16.1752 25.7788 16.1667 25.0549C16.1582 24.331 19.1177 16.1508 21.8379 12.4986C24.5581 8.84637 28.9451 0.377857 32.3874 1.06134C35.8297 1.74482 32.4292 9.98285 31.7006 15.6405C30.972 21.2982 27.5213 30.7492 24.8379 40.4289Z" fill="currentColor" stroke="currentColor" stroke-width="0.164336"/>
  <path d="M15.3797 39.2304C15.5577 38.1423 16.187 34.8767 17.2362 34.8644C18.2854 34.852 17.8187 38.8396 17.6721 39.4749C17.5255 40.1102 16.2206 45.8273 15.6462 45.653C15.0717 45.4788 15.2017 40.3185 15.3797 39.2304Z" fill="currentColor" stroke="currentColor" stroke-width="0.164336"/>
  <path d="M10.6617 35.5253C10.7528 35.1622 11.159 34.3688 11.7924 34.3354C12.4259 34.302 13.0431 35.2257 13.1416 35.496C13.2402 35.7664 12.8634 39.7641 12.6269 40.3893C12.3905 41.0145 11.9763 41.845 11.6912 41.9389C11.4061 42.0327 11.0874 40.6789 11.0054 40.4084C10.9234 40.1379 10.5706 35.8883 10.6617 35.5253Z" fill="currentColor" stroke="currentColor" stroke-width="0.164336"/>
</svg>