<svg width="49" height="49" viewBox="0 0 49 49" fill="none" xmlns="http://www.w3.org/2000/svg" >
  <path d="M11.8418 23.0708L4.0835 44.9166L25.9293 37.1787M8.16683 6.12492H8.18725M44.9168 16.3333H44.9372M30.6252 4.08325H30.6456M44.9168 40.8333H44.9372M44.9168 4.08325L40.3435 5.6145C39.0417 6.04813 37.9309 6.92043 37.201 8.08231C36.4711 9.24419 36.1674 10.6235 36.3418 11.9845C36.546 13.7403 35.1781 15.3124 33.3814 15.3124H32.6056C30.8497 15.3124 29.3389 16.5374 29.0122 18.2524L28.5835 20.4166M44.9168 26.5416L43.2427 25.8678C41.4868 25.1737 39.5268 26.2762 39.2002 28.1341C38.9756 29.5633 37.7302 30.6249 36.2806 30.6249H34.7085M22.4585 4.08325L23.1322 5.75742C23.8264 7.51325 22.7239 9.47325 20.866 9.79992C19.4368 10.0041 18.3752 11.2699 18.3752 12.7195V14.2916" fill="black" stroke="currentColor" stroke-width="4.08333" stroke-linecap="round" stroke-linejoin="round"/>
  <path d="M22.4583 26.5416C26.3987 30.482 28.2362 35.0553 26.5416 36.7499C24.8471 38.4445 20.2737 36.607 16.3333 32.6666C12.3929 28.7261 10.5554 24.1528 12.25 22.4582C13.9446 20.7636 18.5179 22.6011 22.4583 26.5416Z" fill="#898583ff" stroke="currentColor" stroke-width="4.08333" stroke-linecap="round" stroke-linejoin="round"/>
</svg>