<svg width="41" height="41" viewBox="0 0 41 41" fill="none" xmlns="http://www.w3.org/2000/svg">
<path fill-rule="evenodd" clip-rule="evenodd" d="M21.9503 39.8009L21.9278 39.8046L21.7826 39.8707L21.7417 39.8782L21.713 39.8707L21.5677 39.8046C21.5459 39.7983 21.5296 39.8015 21.5186 39.8141L21.5105 39.8329L21.4757 40.6406L21.4859 40.6783L21.5064 40.7028L21.7191 40.8425L21.7498 40.85L21.7744 40.8425L21.9872 40.7028L22.0117 40.6726L22.0199 40.6406L21.9851 39.8348C21.9797 39.8147 21.9681 39.8034 21.9503 39.8009ZM22.4925 39.5876L22.4659 39.5914L22.0874 39.7669L22.067 39.7858L22.0608 39.8065L22.0976 40.6179L22.1079 40.6406L22.1242 40.6538L22.5355 40.8293C22.5614 40.8355 22.5812 40.8305 22.5948 40.8142L22.603 40.7877L22.5334 39.6291C22.5266 39.6065 22.513 39.5927 22.4925 39.5876ZM21.0297 39.5914C21.0206 39.5864 21.0099 39.5847 20.9996 39.5868C20.9893 39.5889 20.9803 39.5946 20.9744 39.6027L20.9621 39.6291L20.8926 40.7877C20.8939 40.8104 20.9055 40.8255 20.9274 40.833L20.958 40.8293L21.3693 40.6538L21.3897 40.6387L21.3979 40.6179L21.4327 39.8065L21.4266 39.7839L21.4061 39.765L21.0297 39.5914Z" fill="currentColor"/>
<path d="M8.62793 1.50879C8.90712 1.53712 9.16561 1.63067 9.37793 1.77148V1.77246C12.3867 3.79473 14.4784 6.86346 16.4814 9.56641L16.4824 9.56738C16.6814 9.83551 16.7544 10.1417 16.7139 10.4316C16.6742 10.7151 16.5215 11.001 16.25 11.2275L12.3398 13.9062C11.9145 14.1895 11.5778 14.605 11.4004 15.1035L11.334 15.3223C11.1843 15.9212 11.2786 16.5459 11.584 17.0713L11.5889 17.0791L11.5928 17.0859C12.5431 18.6782 14.2368 21.0636 16.2178 22.8906C18.1935 24.7128 20.8832 26.3645 22.6963 27.3223L22.707 27.3281C23.2488 27.6086 23.8738 27.6821 24.4609 27.5459C25.0419 27.4111 25.5758 27.071 25.9355 26.5596L25.9365 26.5605L28.4971 22.9648C28.727 22.6972 29.0799 22.4944 29.501 22.4316C29.936 22.367 30.3716 22.4636 30.7119 22.6807C33.4677 24.4401 36.3988 26.24 38.6348 28.6787L39.0723 29.1748C39.2248 29.3568 39.312 29.5607 39.3398 29.7627C39.3678 29.965 39.3374 30.1738 39.2451 30.3711L39.2432 30.375C37.7517 33.5846 33.9329 36.3085 30.1016 36.1787C27.4207 36.0877 19.4451 35.1103 11.0264 27.3477C2.62499 19.5969 1.60131 12.2992 1.50391 9.9082H1.50488C1.37416 6.59267 4.2276 3.03878 7.81055 1.62207L7.81348 1.62109C8.06539 1.52077 8.347 1.48034 8.62793 1.50879Z" fill="currentColor" stroke="currentColor" stroke-width="3"/>
</svg>
